<?xml version="1.0" standalone="no"?>
<!DOCTYPE svg PUBLIC "-//W3C//DTD SVG 1.1//EN" "http://www.w3.org/Graphics/SVG/1.1/DTD/svg11.dtd" >
<svg>
<metadata>
Created by FontForge 20110222 at Mon Mar  7 11:24:39 2011
 By www-data
Free for personal use. Do not distribute. Please, report usage to ivan@neogrey.com. For commercial uses, email me at ivan@neogrey.com. Paypal donations are welcome at dphrag@gmail.com
</metadata>
<defs>
<font id="Neogrey-Medium" horiz-adv-x="708" >
  <font-face 
    font-family="Neogrey"
    font-weight="500"
    font-stretch="normal"
    units-per-em="1000"
    panose-1="2 15 6 5 5 2 0 2 0 3"
    ascent="800"
    descent="-200"
    x-height="520"
    cap-height="800"
    bbox="-177 -260 1289 1031"
    underline-thickness="50"
    underline-position="-50"
    stemh="58"
    stemv="59"
    unicode-range="U+0020-2122"
  />
    <missing-glyph />
    <glyph glyph-name="dollar" unicode="$" horiz-adv-x="756" 
d="M170 777h134v48c0 29 22 51 51 51c26 0 50 -22 50 -51v-48h228c28 0 50 -22 50 -50c0 -27 -22 -50 -50 -50h-463c-37 0 -67 -30 -67 -67v-104c0 -37 30 -67 67 -67h347c92 0 166 -75 166 -167v-104c0 -92 -74 -167 -166 -167h-112v-43c0 -28 -24 -50 -50 -50
c-29 0 -51 22 -51 50v43h-251c-28 0 -50 22 -50 50s22 49 50 49h464c37 0 67 31 67 68v104c0 37 -30 67 -67 67h-347c-92 0 -167 75 -167 167v104c0 92 75 167 167 167z" />
    <glyph glyph-name="percent" unicode="%" horiz-adv-x="937" 
d="M166 78l427 674c8 15 26 24 43 24c9 0 18 -3 26 -8c14 -8 23 -26 23 -43c0 -9 -2 -19 -8 -27c-142 -223 -285 -451 -427 -675c-10 -15 -26 -23 -42 -23c-9 0 -19 2 -28 8c-14 10 -22 25 -22 42c0 9 2 19 8 28zM620 394h61c93 0 168 -75 168 -168v-58
c0 -92 -75 -167 -168 -167h-61c-92 0 -167 75 -167 167v58c0 93 75 168 167 168zM554 226v-58c0 -37 30 -67 66 -67h61c37 0 67 30 67 67v58c0 37 -30 67 -67 67h-61c-36 0 -66 -30 -66 -67zM168 777h61c92 0 167 -75 167 -167v-59c0 -92 -75 -167 -167 -167h-61
c-93 0 -167 75 -167 167v59c0 92 74 167 167 167zM101 610v-59c0 -36 30 -66 67 -66h61c36 0 66 30 66 66v59c0 36 -30 67 -66 67h-61c-37 0 -67 -31 -67 -67z" />
    <glyph glyph-name="ampersand" unicode="&#x26;" horiz-adv-x="694" 
d="M214 412l273 -277c5 8 7 17 7 27v58c0 28 22 51 51 51c28 0 51 -23 51 -51v-58c0 -39 -13 -75 -36 -103l34 -33c10 -10 15 -23 15 -37s-6 -27 -17 -36c-9 -10 -21 -15 -34 -15s-26 5 -36 15l-50 52c-13 -4 -26 -6 -40 -6h-270c-89 0 -162 73 -162 163v58
c0 74 50 138 117 157c-5 14 -17 47 -17 90c0 29 5 60 22 88c36 60 107 80 154 80h188c29 0 51 -21 51 -50c0 -28 -22 -51 -51 -51h-185c-29 -4 -52 -15 -61 -32c-8 -12 -10 -28 -10 -44c0 -19 3 -35 6 -46zM162 100h216l-178 182h-38c-34 0 -61 -28 -61 -62v-58
c0 -34 27 -62 61 -62z" />
    <glyph glyph-name="quotesingle" unicode="'" horiz-adv-x="186" 
d="M51 798c26 0 50 -22 50 -49v-143c0 -29 -24 -51 -50 -51c-29 0 -51 22 -51 51v143c0 27 22 49 51 49z" />
    <glyph glyph-name="parenleft" unicode="(" horiz-adv-x="261" 
d="M127 825c28 0 49 -22 49 -49s-21 -49 -49 -49h-28v-747h28c28 0 49 -22 49 -49c0 -28 -21 -50 -49 -50h-77c-28 0 -50 22 -50 50v845c0 27 22 49 50 49h77z" />
    <glyph glyph-name="parenright" unicode=")" horiz-adv-x="261" 
d="M49 825h78c27 0 49 -22 49 -49v-845c0 -28 -22 -50 -49 -50h-78c-27 0 -49 22 -49 50c0 27 22 49 49 49h29v747h-29c-27 0 -49 22 -49 49s22 49 49 49z" />
    <glyph glyph-name="asterisk" unicode="*" horiz-adv-x="465" 
d="M299 616h50c26 0 46 -20 46 -45s-20 -45 -46 -45h-51l36 -36c18 -17 20 -45 1 -65c-18 -17 -47 -17 -64 0l-37 37v-51c0 -27 -18 -45 -45 -45c-24 0 -44 18 -44 45v51c-13 -12 -25 -25 -37 -37c-17 -17 -46 -17 -64 0c-19 20 -17 48 1 65l36 36h-51c-26 0 -46 20 -46 45
s20 45 46 45h50l-35 35c-18 17 -19 47 -1 65s48 17 65 -1c3 -3 23 -24 36 -36v51c0 26 20 46 44 46c27 0 45 -20 45 -46v-51l36 36c17 18 47 19 65 1s17 -48 -1 -65z" />
    <glyph glyph-name="plus" unicode="+" horiz-adv-x="523" 
d="M268 340h120c28 0 50 -21 50 -49c0 -27 -22 -49 -50 -49h-120v-121c0 -27 -22 -48 -49 -48c-26 0 -49 21 -49 48v121h-120c-28 0 -50 22 -50 49c0 28 22 49 50 49h120v121c0 26 23 48 49 48c27 0 49 -22 49 -48v-121z" />
    <glyph glyph-name="comma" unicode="," horiz-adv-x="225" 
d="M50 100h40c26 0 50 -21 50 -49v-79c0 -29 -24 -51 -50 -51c-29 0 -51 22 -51 51v29c-21 4 -39 25 -39 49c0 27 22 50 50 50z" />
    <glyph glyph-name="hyphen" unicode="-" horiz-adv-x="377" 
d="M242 322h-192c-28 0 -50 21 -50 49s22 50 50 50h192c28 0 50 -22 50 -50s-22 -49 -50 -49z" />
    <glyph glyph-name="period" unicode="." horiz-adv-x="171" 
d="M-1 50v32c0 28 22 50 51 50c26 0 50 -22 50 -50v-32c0 -26 -24 -50 -50 -50c-29 0 -51 24 -51 50z" />
    <glyph glyph-name="slash" unicode="/" horiz-adv-x="536" 
d="M-3 78l427 674c8 15 26 24 43 24c9 0 19 -3 27 -8c14 -8 22 -26 22 -43c0 -9 -2 -19 -8 -27c-142 -223 -285 -451 -427 -675c-10 -15 -26 -23 -42 -23c-9 0 -19 2 -28 8c-14 10 -22 26 -22 43c0 9 3 19 8 27z" />
    <glyph glyph-name="zero" unicode="0" horiz-adv-x="731" 
d="M464 777c92 0 167 -75 167 -168v-441c0 -93 -75 -168 -167 -168h-296c-93 0 -168 75 -168 168v441c0 93 75 168 168 168h296zM168 100h285c-117 161 -236 323 -352 484v-416c0 -37 30 -68 67 -68zM531 165v444c0 37 -31 68 -67 68h-296c-4 0 -6 0 -10 -1
c132 -180 239 -328 373 -511z" />
    <glyph glyph-name="one" unicode="1" horiz-adv-x="406" 
d="M291 610v-559c0 -26 -24 -50 -50 -50c-28 0 -50 24 -50 50v559c0 37 -30 67 -67 67h-90c-29 0 -51 22 -51 50s22 50 51 50h90c92 0 167 -74 167 -167z" />
    <glyph glyph-name="two" unicode="2" horiz-adv-x="734" 
d="M163 778h295c90 0 164 -73 164 -164v-136c0 -90 -73 -163 -163 -163h-295c-35 0 -64 -29 -64 -65v-151h492c27 0 49 -22 49 -50c0 -27 -22 -49 -49 -49h-541c-27 0 -51 22 -51 49v201c0 91 73 164 164 164h295c35 0 64 30 64 64v136c0 36 -30 64 -65 64h-295
c-36 0 -65 -29 -65 -64v-52c0 -29 -22 -51 -49 -51c-28 0 -50 22 -50 51v52c0 91 73 164 164 164z" />
    <glyph glyph-name="three" unicode="3" horiz-adv-x="744" 
d="M642 498c0 -46 -19 -88 -44 -118c25 -30 44 -72 44 -118v-94c0 -93 -76 -168 -169 -168h-305c-93 0 -168 76 -168 168v55c0 28 24 50 51 50c28 0 50 -22 50 -50v-55c0 -37 31 -68 67 -68h305c38 0 68 31 68 68v94c0 36 -22 63 -31 68h-343c-25 0 -47 19 -51 47
c0 30 24 53 51 53h343c11 9 31 36 31 68v112c0 37 -30 67 -68 67h-305c-37 0 -67 -31 -67 -67v-55c0 -28 -22 -50 -50 -50c-29 0 -51 22 -51 50v55c0 92 75 168 168 168h305c93 0 169 -75 169 -168v-112z" />
    <glyph glyph-name="four" unicode="4" horiz-adv-x="775" 
d="M541 727c0 26 24 50 50 50c28 0 50 -24 50 -50v-677c0 -28 -22 -50 -50 -50c-26 0 -50 22 -50 50v260c-19 -8 -45 -14 -67 -14h-305c-93 0 -168 75 -168 168v263c0 26 22 50 51 50c28 0 50 -24 50 -50v-263c0 -38 30 -68 67 -68h305c37 0 67 31 67 68v263z" />
    <glyph glyph-name="five" unicode="5" horiz-adv-x="734" 
d="M105 607v-131h365c93 0 168 -75 168 -167v-142c0 -92 -75 -167 -168 -167h-303c-92 0 -167 75 -167 167v83c0 28 22 50 50 50c27 0 51 -22 51 -50v-83c0 -36 30 -67 66 -67h303c37 0 67 31 67 67v142c0 36 -30 66 -67 66h-415c-28 0 -50 24 -50 50v182
c0 92 74 167 166 167h398c27 0 50 -22 50 -50c0 -26 -23 -50 -50 -50h-398c-37 0 -66 -30 -66 -67z" />
    <glyph glyph-name="six" unicode="6" horiz-adv-x="757" 
d="M645 280v-113c0 -92 -75 -167 -167 -167h-310c-93 0 -168 75 -168 166v445c0 91 75 166 167 166h385c26 0 50 -22 50 -50s-24 -50 -50 -50h-385c-37 0 -66 -30 -66 -66v-164h377c92 0 167 -74 167 -167zM545 167v113c0 37 -31 67 -67 67h-377v-181c0 -36 30 -66 67 -66
h310c36 0 67 31 67 67z" />
    <glyph glyph-name="seven" unicode="7" horiz-adv-x="563" 
d="M-23 779h479c18 0 34 -10 44 -27c8 -13 6 -35 -1 -51c-133 -223 -270 -454 -403 -676c-14 -25 -46 -32 -71 -18c-15 9 -24 26 -24 44c0 7 6 20 8 27c190 317 356 599 356 599h-388c-29 0 -52 22 -52 51c0 28 23 51 52 51z" />
    <glyph glyph-name="eight" unicode="8" horiz-adv-x="758" 
d="M671 505c0 -47 -18 -88 -47 -117c30 -30 48 -71 48 -117v-104c0 -92 -75 -167 -167 -167h-338c-92 0 -167 74 -167 166v105c0 46 18 86 48 116c-28 29 -48 74 -48 117v105c0 92 74 167 166 167h339c92 0 166 -75 166 -167v-104zM166 438h340c36 0 66 30 66 67v104
c0 37 -30 67 -67 67h-339c-36 0 -66 -30 -66 -67v-105c0 -36 30 -66 66 -66zM506 338h-340c-36 0 -65 -30 -65 -67v-105c0 -36 30 -66 66 -66h338c37 0 67 31 67 67v104c0 37 -30 67 -66 67z" />
    <glyph glyph-name="nine" unicode="9" horiz-adv-x="758" 
d="M0 497v114c0 92 74 166 167 166h311c92 0 167 -74 167 -166v-444c0 -92 -75 -167 -167 -167h-384c-74 0 -74 100 0 100h384c36 0 67 31 67 67v163h-378c-93 0 -167 74 -167 167zM101 611v-114c0 -37 29 -67 66 -67h378v181c0 36 -31 66 -67 66h-311
c-37 0 -66 -30 -66 -66z" />
    <glyph glyph-name="colon" unicode=":" horiz-adv-x="135" 
d="M0 342v69c0 28 22 50 51 50c26 0 50 -22 50 -50v-69c0 -26 -24 -50 -50 -50c-29 0 -51 24 -51 50zM0 78v68c0 28 22 50 51 50c26 0 50 -22 50 -50v-68c0 -27 -24 -51 -50 -51c-29 0 -51 24 -51 51z" />
    <glyph glyph-name="semicolon" unicode=";" horiz-adv-x="225" 
d="M50 184h40c26 0 50 -22 50 -49v-80c0 -28 -24 -50 -50 -50c-28 0 -50 22 -50 50v29c-22 5 -40 25 -40 50c0 26 22 50 50 50zM29 342v69c0 28 22 50 51 50c26 0 50 -22 50 -50v-69c0 -26 -24 -50 -50 -50c-29 0 -51 24 -51 50z" />
    <glyph glyph-name="less" unicode="&#x3c;" horiz-adv-x="500" 
 />
    <glyph glyph-name="equal" unicode="=" horiz-adv-x="565" 
d="M429 275h-379c-28 0 -50 22 -50 50c0 27 22 50 50 50h379c27 0 51 -23 51 -50c0 -28 -24 -50 -51 -50zM429 110h-379c-28 0 -50 22 -50 51c0 26 22 50 50 50h379c27 0 51 -24 51 -50c0 -29 -24 -51 -51 -51z" />
    <glyph glyph-name="greater" unicode="&#x3e;" horiz-adv-x="500" 
 />
    <glyph glyph-name="question" unicode="?" horiz-adv-x="699" 
d="M167 774h302c92 0 166 -74 166 -166v-37c0 -93 -74 -167 -166 -167h-86c-37 0 -66 -31 -66 -67v-87c0 -29 -23 -51 -50 -51c-26 0 -50 22 -50 51v87c0 92 75 167 166 167h86c36 0 66 30 66 67v37c0 37 -30 67 -66 67h-302c-37 0 -66 -30 -66 -67v-54
c0 -28 -24 -50 -50 -50c-29 0 -51 22 -51 50v54c0 92 74 166 167 166zM217 50v69c0 28 22 50 50 50c27 0 50 -22 50 -50v-69c0 -26 -23 -50 -50 -50c-28 0 -50 24 -50 50z" />
    <glyph glyph-name="at" unicode="@" horiz-adv-x="800" 
d="M666 -144h-501c-89 0 -165 73 -165 164v335c0 92 75 166 165 166h383c92 0 166 -74 166 -166v-252c0 -65 -52 -116 -117 -117h-19c-64 1 -116 52 -116 117v174c0 10 -8 18 -18 18h-180c-10 0 -17 -9 -17 -18v-174c0 -10 7 -18 17 -18h142c27 0 49 -22 49 -50
c0 -27 -22 -49 -49 -49h-142c-64 0 -116 52 -116 117v174c4 65 53 116 116 116h180c65 0 117 -53 117 -116v-174c0 -10 7 -18 17 -18h19c11 0 18 7 18 18v252c0 36 -30 67 -67 67h-383c-38 -2 -67 -32 -67 -67v-333c0 -36 31 -67 67 -67h501c27 0 49 -22 49 -49
c0 -28 -22 -50 -49 -50z" />
    <glyph glyph-name="A" unicode="A" horiz-adv-x="852" 
d="M172 801h373c95 0 172 -77 172 -172v-576c0 -29 -25 -52 -52 -52s-52 23 -52 52v304h-510v-304c0 -29 -24 -52 -52 -52c-27 0 -51 23 -51 52v576c0 95 77 172 172 172zM103 629v-170h510v170c0 38 -31 68 -68 68h-373c-38 0 -69 -30 -69 -68z" />
    <glyph glyph-name="B" unicode="B" horiz-adv-x="838" 
d="M172 801h330c92 0 209 -36 209 -172v-115c0 -47 -19 -90 -49 -121c28 -31 48 -76 48 -120v-100c0 -95 -77 -172 -172 -172h-486c-28 0 -52 25 -52 52v568c0 101 75 180 172 180zM103 445h436c38 0 70 31 70 69v115c0 37 -32 69 -70 69h-367c-39 0 -69 -32 -69 -77v-176z
M103 105h435c38 0 69 31 69 68v100c0 38 -31 69 -69 69h-435v-237z" />
    <glyph glyph-name="C" unicode="C" horiz-adv-x="800" 
d="M172 801h455c30 0 52 -23 52 -52c0 -27 -22 -52 -52 -52h-455c-38 0 -69 -31 -69 -68v-456c0 -37 31 -69 69 -69h455c30 0 52 -24 52 -51c0 -29 -22 -52 -52 -52h-455c-95 0 -172 77 -172 172v456c0 95 77 172 172 172z" />
    <glyph glyph-name="D" unicode="D" horiz-adv-x="862" 
d="M52 800h517c95 0 172 -77 172 -172v-456c0 -95 -77 -172 -172 -172h-517c-29 0 -52 23 -52 52v696c0 27 25 52 52 52zM569 696h-465v-593h465c37 0 69 32 69 69v456c0 37 -32 68 -69 68z" />
    <glyph glyph-name="E" unicode="E" horiz-adv-x="810" 
d="M172 103h455c27 0 52 -24 52 -51c0 -29 -25 -52 -52 -52h-455c-95 0 -172 77 -172 172v456c0 95 77 172 172 172h455c28 0 51 -23 51 -52c0 -27 -23 -52 -51 -52h-455c-37 0 -68 -31 -68 -68v-169h511c29 0 51 -24 51 -51c0 -28 -22 -52 -51 -52h-511v-184
c0 -37 31 -69 68 -69z" />
    <glyph glyph-name="F" unicode="F" horiz-adv-x="771" 
d="M173 801h460c27 0 52 -23 52 -52c0 -27 -25 -52 -52 -52h-460c-38 0 -69 -31 -69 -68v-169h478c29 0 52 -24 52 -51c0 -30 -23 -52 -52 -52h-478v-304c0 -29 -25 -52 -52 -52c-29 0 -52 23 -52 52v576c0 95 78 172 173 172z" />
    <glyph glyph-name="G" unicode="G" horiz-adv-x="888" 
d="M177 801h528c29 0 52 -24 52 -53s-23 -52 -52 -52h-528c-39 0 -72 -33 -72 -73v-444c0 -40 33 -73 72 -73h402c41 0 73 33 73 73v177h-371c-29 0 -53 23 -53 53s24 50 53 50h424c29 0 52 -20 52 -50v-230c0 -98 -79 -178 -178 -178h-402c-97 0 -177 80 -177 178v444
c0 98 80 178 177 178z" />
    <glyph glyph-name="H" unicode="H" horiz-adv-x="831" 
d="M641 801c29 0 51 -23 51 -52v-696c0 -29 -22 -52 -51 -52s-51 23 -51 52v304h-487v-304c0 -29 -24 -52 -52 -52c-29 0 -51 23 -51 52v696c0 29 22 52 51 52c28 0 52 -23 52 -52v-289h487v289c0 29 22 52 51 52z" />
    <glyph glyph-name="I" unicode="I" horiz-adv-x="229" 
d="M0 52v696c0 29 23 52 52 52c27 0 52 -23 52 -52v-696c0 -29 -25 -52 -52 -52c-29 0 -52 23 -52 52z" />
    <glyph glyph-name="J" unicode="J" horiz-adv-x="812" 
d="M680 748v-576c0 -95 -77 -172 -172 -172h-470c-29 0 -51 23 -51 52c0 27 22 51 51 51h470c38 0 69 32 69 69v576c0 29 22 52 51 52c28 0 52 -23 52 -52z" />
    <glyph glyph-name="K" unicode="K" horiz-adv-x="800" 
d="M596 735c-25 -93 -51 -187 -75 -279c116 -10 153 -104 153 -168v-236c0 -32 -27 -52 -53 -52c-27 0 -51 20 -51 52v236c0 38 -29 65 -67 65h-399v-301c0 -32 -25 -52 -51 -52c-32 0 -53 20 -53 52v696c0 27 21 52 53 52c26 0 51 -25 51 -52v-291h310
c28 101 56 204 83 305c8 23 28 37 51 37c4 0 8 0 12 -1c21 -6 39 -25 39 -48c0 -5 -1 -10 -3 -15z" />
    <glyph glyph-name="L" unicode="L" horiz-adv-x="771" 
d="M0 172v576c0 29 22 52 51 52c28 0 52 -23 52 -52v-576c0 -37 31 -69 69 -69h469c28 0 52 -24 52 -51c0 -29 -24 -52 -52 -52h-469c-95 0 -172 77 -172 172z" />
    <glyph glyph-name="M" unicode="M" horiz-adv-x="1442" 
d="M765 800h352c95 0 172 -77 172 -172v-576c0 -29 -22 -52 -51 -52s-51 23 -51 52v576c0 38 -31 68 -70 68h-352c-38 0 -69 -30 -69 -68v-576c0 -29 -22 -52 -51 -52s-51 23 -51 52v576c0 38 -32 68 -70 68h-352c-38 0 -69 -30 -69 -68v-576c0 -29 -22 -52 -51 -52
c-28 0 -52 23 -52 52v576c0 95 77 172 172 172h352c45 0 90 -22 120 -50c31 32 74 50 121 50z" />
    <glyph glyph-name="N" unicode="N" horiz-adv-x="864" 
d="M657 52v576c0 38 -31 69 -69 69h-416c-39 0 -70 -31 -70 -69v-576c0 -29 -22 -52 -51 -52s-51 23 -51 52v576c0 95 77 172 172 172h416c95 0 172 -77 172 -172v-576c0 -29 -22 -52 -52 -52c-27 0 -51 23 -51 52z" />
    <glyph glyph-name="O" unicode="O" horiz-adv-x="922" 
d="M172 800h450c95 0 172 -77 172 -172v-456c0 -95 -77 -172 -172 -172h-450c-95 0 -172 77 -172 172v456c0 95 77 172 172 172zM104 628v-456c0 -37 31 -69 68 -69h450c38 0 69 32 69 69v456c0 37 -31 68 -69 68h-450c-37 0 -68 -31 -68 -68z" />
    <glyph glyph-name="P" unicode="P" horiz-adv-x="844" 
d="M173 800h395c95 0 172 -77 172 -172v-257c0 -95 -77 -172 -172 -172h-464v-147c0 -29 -25 -52 -52 -52c-29 0 -52 23 -52 52v576c0 95 77 172 173 172zM104 628v-326h464c38 0 70 31 70 69v257c0 37 -32 68 -70 68h-395c-38 0 -69 -31 -69 -68z" />
    <glyph glyph-name="Q" unicode="Q" horiz-adv-x="945" 
d="M171 801h474c95 0 172 -76 172 -171v-459c0 -95 -77 -171 -172 -171h-185c1 -37 31 -67 68 -67c29 0 51 -22 51 -51s-22 -51 -51 -51c-95 0 -170 75 -171 169h-186c-95 0 -171 76 -171 171v459c0 95 76 171 171 171zM714 171v459c0 37 -31 68 -69 68h-474
c-38 0 -69 -31 -69 -68v-459c0 -37 31 -68 69 -68h186v127c0 29 23 51 52 51c28 0 51 -22 51 -51v-127h185c38 0 69 31 69 68z" />
    <glyph glyph-name="R" unicode="R" horiz-adv-x="870" 
d="M568 801c95 0 172 -77 172 -172v-163c0 -95 -76 -171 -171 -172c22 -57 62 -155 90 -222c3 -6 4 -12 4 -18c0 -21 -14 -41 -33 -49c-6 -3 -12 -4 -19 -4c-20 0 -40 12 -48 32l-103 261h-356v-241c0 -29 -25 -52 -52 -52c-29 0 -52 23 -52 52v576c0 95 77 172 173 172h395
zM638 466v163c0 37 -32 68 -70 68h-395c-38 0 -69 -31 -69 -68v-232h464c38 0 70 31 70 69z" />
    <glyph glyph-name="S" unicode="S" horiz-adv-x="839" 
d="M171 800h477c29 0 52 -23 52 -52c0 -27 -23 -52 -52 -52h-477c-39 0 -70 -30 -70 -68v-108c0 -37 31 -68 70 -68h358c94 0 171 -77 171 -173v-107c0 -95 -77 -172 -171 -172h-479c-29 0 -51 23 -51 52c0 28 22 51 51 51h479c37 0 68 31 68 69v107c0 38 -31 69 -68 69
h-358c-95 0 -172 77 -172 172v108c0 95 77 172 172 172z" />
    <glyph glyph-name="T" unicode="T" horiz-adv-x="851" 
d="M39 801h654c30 0 52 -23 52 -52c0 -27 -22 -52 -52 -52h-275v-644c0 -29 -23 -52 -51 -52c-29 0 -52 23 -52 52v644h-276c-29 0 -51 25 -51 52c0 29 22 52 51 52z" />
    <glyph glyph-name="U" unicode="U" horiz-adv-x="902" 
d="M658 172v576c0 29 24 52 51 52c29 0 52 -23 52 -52v-576c0 -95 -77 -172 -172 -172h-417c-95 0 -172 77 -172 172v576c0 29 22 52 51 52s51 -23 51 -52v-576c0 -38 31 -69 70 -69h417c37 0 69 31 69 69z" />
    <glyph glyph-name="V" unicode="V" horiz-adv-x="803" 
d="M358 191l265 578c8 20 26 33 47 33c7 0 13 -1 20 -4c20 -8 33 -26 33 -47c0 -6 -1 -13 -4 -20l-313 -697c-7 -22 -27 -34 -48 -34c-22 0 -41 12 -48 33l-321 698c-3 6 -4 13 -4 19c0 21 14 40 33 48c5 2 10 3 16 3c20 0 42 -13 51 -31z" />
    <glyph glyph-name="W" unicode="W" horiz-adv-x="1279" 
d="M430 0h-258c-95 0 -172 76 -172 171v578c0 28 23 52 52 52c27 0 51 -24 51 -52v-578c0 -37 32 -68 69 -68h258c38 0 69 31 69 68v578c0 28 22 52 52 52c27 0 51 -24 51 -52v-578c0 -37 31 -68 69 -68h258c38 0 69 31 69 68v578c0 28 22 52 51 52c28 0 52 -24 52 -52v-578
c0 -95 -77 -171 -172 -171h-258c-46 0 -91 21 -121 49c-31 -30 -74 -49 -120 -49z" />
    <glyph glyph-name="X" unicode="X" horiz-adv-x="865" 
d="M751 528c0 -47 -20 -89 -50 -120c30 -32 50 -74 50 -121v-235c0 -29 -23 -52 -51 -52c-29 0 -52 23 -52 52v235c0 38 -31 69 -70 69h-405c-38 0 -69 -31 -69 -69v-235c0 -29 -25 -52 -52 -52c-29 0 -52 23 -52 52v235c0 47 19 89 49 121c-30 31 -49 73 -49 120v220
c0 29 23 52 52 52c27 0 52 -23 52 -52v-220c0 -38 31 -69 69 -69h405c39 0 70 31 70 69v220c0 29 23 52 52 52c28 0 51 -23 51 -52v-220z" />
    <glyph glyph-name="Y" unicode="Y" horiz-adv-x="854" 
d="M682 801c29 0 51 -23 51 -52v-219c0 -95 -77 -172 -172 -172h-129v-305c0 -29 -22 -52 -51 -52s-51 23 -51 52v305h-158c-95 0 -172 77 -172 172v219c0 29 23 52 52 52c27 0 52 -23 52 -52v-219c0 -38 31 -69 68 -69h389c38 0 69 31 69 69v219c0 29 24 52 52 52z" />
    <glyph glyph-name="Z" unicode="Z" horiz-adv-x="814" 
d="M52 800h597c20 0 39 -13 47 -31c5 -18 3 -35 -9 -53c-487 -571 -523 -612 -523 -612h505c29 0 52 -25 52 -52c0 -29 -23 -52 -52 -52h-617c-27 0 -52 23 -52 52c0 12 4 25 12 33c489 570 524 612 524 612h-484c-28 0 -52 22 -52 51c0 28 24 52 52 52z" />
    <glyph glyph-name="bracketleft" unicode="[" horiz-adv-x="270" 
d="M127 825c27 0 49 -22 49 -49s-22 -49 -49 -49h-29v-747h29c27 0 49 -22 49 -49c0 -28 -22 -50 -49 -50h-78c-27 0 -49 22 -49 50v845c0 27 22 49 49 49h78z" />
    <glyph glyph-name="backslash" unicode="\" horiz-adv-x="464" 
d="M77 750l300 -676c3 -8 5 -16 5 -24c0 -16 -6 -31 -21 -42c-9 -5 -19 -7 -29 -7c-18 0 -35 8 -42 25l-301 675c-4 8 -6 17 -6 25c0 16 7 32 23 42c8 5 18 8 28 8c18 0 36 -9 43 -26z" />
    <glyph glyph-name="bracketright" unicode="]" horiz-adv-x="198" 
d="M-29 825h78c27 0 49 -22 49 -49v-845c0 -28 -22 -50 -49 -50h-78c-27 0 -49 22 -49 50c0 27 22 49 49 49h29v747h-29c-27 0 -49 22 -49 49s22 49 49 49z" />
    <glyph glyph-name="asciicircum" unicode="^" horiz-adv-x="399" 
d="M194 772l123 -165c6 -8 10 -19 10 -29c0 -15 -7 -30 -19 -38c-9 -7 -19 -10 -29 -10c-15 0 -29 7 -38 18l-85 115c-27 -38 -57 -78 -83 -116c-10 -10 -24 -15 -38 -15c-10 0 -19 2 -28 8c-11 8 -17 23 -17 38c0 10 2 21 8 29c38 53 80 110 119 164c11 12 25 20 39 20
c16 0 30 -9 38 -19z" />
    <glyph glyph-name="underscore" unicode="_" horiz-adv-x="452" 
d="M382 0h-330c-26 0 -50 22 -50 49c0 29 24 50 50 50h330c27 0 49 -21 49 -50c0 -27 -22 -49 -49 -49z" />
    <glyph glyph-name="grave" unicode="`" horiz-adv-x="229" 
d="M19 675c9 8 21 12 33 12c15 0 30 -6 39 -19c17 -21 36 -42 54 -63c7 -9 11 -21 11 -33c0 -15 -6 -29 -17 -39c-9 -8 -21 -12 -33 -12c-15 0 -29 6 -39 18l-55 63c-8 10 -11 22 -11 33c0 14 6 29 18 40z" />
    <glyph glyph-name="a" unicode="a" 
d="M54 520h393c91 0 164 -73 164 -164v-192c0 -91 -73 -164 -163 -164h-284c-91 0 -164 74 -164 164c0 92 74 165 165 165h348v27c0 37 -30 66 -66 66h-393c-28 0 -50 22 -50 49s22 49 50 49zM99 164c0 -35 29 -65 65 -65h284c36 0 65 30 65 65v66h-348
c-37 0 -66 -30 -66 -66z" />
    <glyph glyph-name="b" unicode="b" horiz-adv-x="709" 
d="M98 726v-206h352c92 0 167 -74 167 -167v-186c0 -92 -75 -167 -167 -167h-285c-92 0 -165 75 -165 167v559c0 28 22 50 50 50c26 0 48 -22 48 -50zM517 167v188c0 37 -30 67 -67 67h-352v-255c0 -37 30 -67 67 -67h285c37 0 67 30 67 67z" />
    <glyph glyph-name="c" unicode="c" horiz-adv-x="688" 
d="M168 520h388c26 0 50 -22 50 -50c0 -26 -24 -48 -50 -48h-391c-36 0 -67 -30 -67 -68v-186c0 -38 30 -68 67 -68h389c28 0 50 -22 50 -50s-22 -50 -50 -50h-386c-93 0 -168 75 -168 168v186c0 93 75 166 168 166z" />
    <glyph glyph-name="d" unicode="d" 
d="M500 726c0 28 22 50 49 50c28 0 49 -22 49 -50v-559c0 -92 -74 -167 -166 -167h-268c-92 0 -164 75 -164 167v186c0 92 72 167 164 167h336v206zM98 355v-188c0 -37 30 -67 66 -67h268c38 0 68 30 68 67v255h-336c-36 0 -66 -30 -66 -67z" />
    <glyph glyph-name="e" unicode="e" horiz-adv-x="711" 
d="M166 520h282c91 0 166 -74 166 -166v-105c0 -28 -22 -50 -50 -50h-466v-33c0 -36 30 -67 67 -67h382c26 0 50 -21 50 -49s-24 -50 -50 -50h-381c-92 0 -166 74 -166 166v188c0 92 74 166 166 166zM98 355v-57h417v57c0 37 -30 67 -67 67h-283c-37 0 -67 -30 -67 -67z" />
    <glyph glyph-name="f" unicode="f" horiz-adv-x="377" 
d="M328 676h-161c-36 0 -66 -31 -66 -67v-90h162c28 0 50 -22 50 -51c0 -26 -22 -50 -50 -50h-162v-368c0 -28 -24 -50 -51 -50c-28 0 -50 22 -50 50v559c0 92 75 167 167 167h161c28 0 50 -22 50 -50c0 -27 -22 -50 -50 -50z" />
    <glyph glyph-name="g" unicode="g" horiz-adv-x="729" 
d="M167 99h351v257c0 37 -31 66 -66 66h-285c-37 0 -67 -30 -67 -68v-187c0 -38 30 -68 67 -68zM452 -260h-362c-28 0 -50 22 -50 50s22 50 50 50h362c36 0 66 31 66 67v93h-351c-92 0 -167 74 -167 167v185c0 93 75 168 167 168h285c92 0 167 -75 167 -168v-445
c0 -92 -75 -167 -167 -167z" />
    <glyph glyph-name="h" unicode="h" horiz-adv-x="687" 
d="M98 356v-307c0 -27 -21 -49 -48 -49c-28 0 -50 22 -50 49v678c0 27 22 49 50 49c27 0 48 -22 48 -49v-220c18 7 44 13 65 13h267c91 0 163 -74 163 -164v-307c0 -27 -21 -49 -49 -49c-27 0 -49 22 -49 49v307c0 36 -29 65 -65 65h-267c-36 0 -65 -29 -65 -65z" />
    <glyph glyph-name="i" unicode="i" horiz-adv-x="204" 
d="M51 520c26 0 50 -22 50 -49v-421c0 -28 -24 -50 -50 -50c-29 0 -51 22 -51 50v421c0 27 22 49 51 49zM0 615v32c0 28 22 50 51 50c26 0 50 -22 50 -50v-32c0 -27 -24 -50 -50 -50c-29 0 -51 23 -51 50z" />
    <glyph glyph-name="j" unicode="j" horiz-adv-x="227" 
d="M130 471v-559c0 -92 -74 -167 -167 -167h-90c-28 0 -50 22 -50 50c0 27 22 51 50 51h90c37 0 67 30 67 66v559c0 28 22 50 50 50c27 0 50 -22 50 -50zM32 615v32c0 28 24 50 50 50c28 0 50 -22 50 -50v-32c0 -27 -22 -50 -50 -50c-26 0 -50 23 -50 50z" />
    <glyph glyph-name="k" unicode="k" horiz-adv-x="652" 
d="M560 470v-72c0 -47 -19 -89 -48 -119c29 -30 48 -71 48 -117v-112c0 -26 -24 -50 -50 -50c-27 0 -50 24 -50 50v112c0 38 -31 67 -68 67h-291v-179c0 -26 -22 -50 -50 -50c-27 0 -51 24 -51 50v676c0 26 24 50 51 50c28 0 50 -24 50 -50v-396h291c37 0 68 31 68 68v72
c0 28 23 50 50 50c26 0 50 -22 50 -50z" />
    <glyph glyph-name="l" unicode="l" horiz-adv-x="365" 
d="M0 167v559c0 28 22 50 51 50c26 0 50 -22 50 -50v-559c0 -37 30 -67 66 -67h91c26 0 50 -23 50 -50c0 -26 -24 -50 -50 -50h-91c-92 0 -167 75 -167 167z" />
    <glyph glyph-name="m" unicode="m" horiz-adv-x="1039" 
d="M584 520h190c95 0 170 -77 170 -170v-301c0 -27 -22 -49 -51 -49c-28 0 -50 22 -50 49v301c0 37 -29 67 -69 67h-190c-36 0 -65 -30 -65 -67v-301c0 -23 -18 -41 -39 -47c-6 -3 -10 -2 -15 -2c-28 0 -50 22 -50 49v301c0 37 -29 67 -67 67h-182c-36 0 -66 -30 -66 -67
v-301c0 -27 -25 -49 -51 -49c-28 0 -49 22 -49 49v301c0 93 74 170 166 170h182c48 0 89 -22 118 -52c32 31 71 52 118 52z" />
    <glyph glyph-name="n" unicode="n" horiz-adv-x="664" 
d="M49 520h355c93 0 167 -75 167 -167v-303c0 -28 -22 -50 -50 -50c-27 0 -49 22 -49 50v303c0 37 -30 67 -68 67h-304v-370c0 -28 -24 -50 -50 -50c-28 0 -50 22 -50 50v420c0 28 21 49 49 50z" />
    <glyph glyph-name="o" unicode="o" horiz-adv-x="774" 
d="M167 520h345c93 0 168 -75 168 -167v-185c0 -92 -75 -167 -168 -167h-345c-92 0 -167 75 -167 167v185c0 92 75 167 167 167zM101 355v-187c0 -37 30 -67 66 -67h345c37 0 67 30 67 67v187c0 37 -30 67 -67 67h-345c-36 0 -66 -30 -66 -67z" />
    <glyph glyph-name="p" unicode="p" 
d="M100 -207c0 -28 -24 -50 -50 -50c-28 0 -50 22 -50 50v562c0 92 75 165 167 165h280c92 0 167 -73 167 -165v-188c0 -92 -75 -167 -167 -167h-347v-207zM515 167v188c0 37 -31 67 -68 67h-280c-37 0 -67 -30 -67 -67v-255h347c37 0 68 30 68 67z" />
    <glyph glyph-name="q" unicode="q" horiz-adv-x="726" 
d="M517 -205v207h-350c-92 0 -167 75 -167 167v186c0 92 75 165 167 165h283c92 0 167 -73 167 -165v-560c0 -28 -22 -50 -50 -50s-50 22 -50 50zM100 355v-186c0 -37 30 -67 67 -67h350v253c0 37 -30 67 -67 67h-283c-37 0 -67 -30 -67 -67z" />
    <glyph glyph-name="r" unicode="r" horiz-adv-x="649" 
d="M162 520h246c90 0 162 -73 162 -162c0 -28 -22 -49 -49 -49c-26 0 -48 21 -48 49c0 35 -30 64 -65 64h-246c-35 0 -64 -29 -64 -64v-309c0 -27 -22 -49 -49 -49s-49 22 -49 49v309c0 89 73 162 162 162z" />
    <glyph glyph-name="s" unicode="s" horiz-adv-x="719" 
d="M157 520h394c26 0 50 -23 50 -50c0 -26 -24 -48 -50 -48h-394c-40 0 -67 -28 -67 -57s27 -55 67 -55h283c96 0 170 -68 170 -154c0 -85 -74 -156 -170 -156h-398c-27 0 -49 22 -49 50s22 49 49 49h398c40 0 69 27 69 57c0 29 -29 55 -69 55h-283c-96 0 -166 69 -166 154
c0 86 70 155 166 155z" />
    <glyph glyph-name="t" unicode="t" horiz-adv-x="391" 
d="M167 100h96c29 0 51 -23 51 -50c0 -28 -22 -50 -51 -50h-96c-93 0 -167 75 -167 167v559c0 28 21 50 50 50c26 0 50 -22 50 -50v-205h163c28 0 50 -22 50 -50c0 -27 -22 -49 -50 -49h-163v-255c0 -37 30 -67 67 -67z" />
    <glyph glyph-name="u" unicode="u" horiz-adv-x="703" 
d="M540 0h-373c-92 0 -167 75 -167 167v303c0 27 22 50 50 50c27 0 51 -23 51 -50v-303c0 -37 30 -67 66 -67h323v369c0 27 22 50 50 50s50 -23 50 -50v-419c0 -26 -22 -50 -50 -50z" />
    <glyph glyph-name="v" unicode="v" horiz-adv-x="697" 
d="M519 499c9 17 25 26 43 26c8 0 17 -2 25 -6c16 -9 26 -26 26 -44c0 -8 -2 -17 -7 -25l-234 -424c-10 -16 -26 -26 -44 -26h-50c-18 0 -34 10 -43 26l-238 424c-4 8 -6 16 -6 24c0 18 9 35 25 45c7 4 16 6 24 6c18 0 36 -9 45 -26l217 -389c1 3 3 5 5 9
c22 39 77 137 212 380z" />
    <glyph glyph-name="w" unicode="w" horiz-adv-x="979" 
d="M326 0h-159c-92 0 -167 75 -167 167v303c0 28 22 50 50 50c27 0 50 -22 50 -50v-303c0 -37 30 -67 67 -67h159c36 0 67 30 67 67v303c0 28 21 50 50 50c26 0 50 -22 50 -50v-303c0 -37 30 -67 67 -67h149c37 0 67 30 67 67v303c0 28 22 50 50 50c27 0 50 -22 50 -50v-303
c0 -92 -74 -167 -167 -167h-149c-44 0 -88 20 -117 47c-30 -29 -72 -47 -117 -47z" />
    <glyph glyph-name="x" unicode="x" horiz-adv-x="695" 
d="M600 368c0 -46 -19 -87 -48 -117c29 -30 48 -71 48 -117v-84c0 -28 -22 -50 -49 -50c-28 0 -50 22 -50 50v84c0 37 -30 67 -68 67h-266c-36 0 -66 -30 -66 -67v-84c0 -28 -24 -50 -50 -50c-29 0 -51 22 -51 50v84c0 46 19 87 48 117c-29 30 -48 71 -48 117v102
c0 28 22 50 51 50c26 0 50 -22 50 -50v-102c0 -37 30 -67 66 -67h266c38 0 68 30 68 67v102c0 28 22 50 50 50c27 0 49 -22 49 -50v-102z" />
    <glyph glyph-name="y" unicode="y" horiz-adv-x="698" 
d="M606 471v-558c0 -93 -75 -167 -167 -167h-345c-29 0 -51 22 -51 49c0 29 22 51 51 51h345c36 0 66 30 66 67v101c-19 -8 -44 -14 -66 -14h-272c-93 0 -167 75 -167 167v304c0 28 21 50 50 50c26 0 50 -22 50 -50v-304c0 -36 30 -67 67 -67h272c36 0 66 31 66 67v304
c0 28 22 50 51 50c26 0 50 -22 50 -50z" />
    <glyph glyph-name="z" unicode="z" horiz-adv-x="687" 
d="M549 520c26 0 46 -27 46 -55c0 -16 -7 -32 -22 -43c0 0 -302 -250 -392 -325h369c27 0 48 -23 48 -49c0 -29 -21 -48 -48 -48h-511c-24 0 -47 23 -47 47c0 18 6 31 19 41c0 0 310 259 401 334h-368c-29 0 -52 18 -52 49c0 27 22 49 51 49h506z" />
    <glyph glyph-name="braceleft" unicode="{" horiz-adv-x="354" 
d="M242 19c26 0 50 -24 50 -50c0 -27 -24 -49 -50 -49h-74c-93 0 -167 74 -167 166v263h-11c-29 0 -52 24 -52 50c0 31 23 49 52 49h11v215c0 91 74 166 167 166h74c26 0 50 -18 50 -50c0 -28 -24 -49 -50 -49h-74c-38 0 -67 -31 -67 -67v-577c0 -38 29 -67 67 -67h74z" />
    <glyph glyph-name="bar" unicode="|" horiz-adv-x="193" 
d="M-1 -122v849c0 28 22 50 51 50c26 0 50 -22 50 -50v-849c0 -29 -24 -51 -50 -51c-29 0 -51 22 -51 51z" />
    <glyph glyph-name="braceright" unicode="}" horiz-adv-x="354" 
d="M36 19h75c37 0 66 29 66 67v577c0 36 -29 67 -66 67h-75c-26 0 -50 21 -50 49c0 32 24 50 50 50h75c92 0 167 -75 167 -166v-215h10c29 0 52 -18 52 -49c0 -26 -23 -50 -52 -50h-10v-263c0 -92 -75 -166 -167 -166h-75c-26 0 -50 22 -50 49c0 26 24 50 50 50z" />
    <glyph glyph-name="asciitilde" unicode="~" horiz-adv-x="729" 
d="M109 208c39 22 82 33 125 33c30 0 59 -5 87 -17c19 -9 42 -13 63 -13c26 0 52 6 74 18c25 15 57 5 72 -21c15 -25 4 -57 -21 -72c-38 -21 -83 -32 -127 -32c-37 0 -71 7 -104 21c-14 6 -29 9 -45 9c-24 0 -49 -6 -73 -19c-25 -14 -59 -4 -72 22v-1c-15 26 -5 58 21 72z
" />
    <glyph glyph-name="quotesinglbase" unicode="&#x201a;" horiz-adv-x="229" 
d="M-11 100h40c26 0 50 -21 50 -49v-79c0 -29 -24 -51 -50 -51c-29 0 -51 22 -51 51v29c-21 4 -39 25 -39 49c0 27 22 50 50 50z" />
    <glyph glyph-name="florin" unicode="&#x192;" horiz-adv-x="479" 
 />
    <glyph glyph-name="quotedblbase" unicode="&#x201e;" horiz-adv-x="229" 
d="M-8 100h40c26 0 50 -21 50 -49v-79c0 -29 -24 -51 -50 -51c-28 0 -50 22 -50 51v29c-22 4 -40 25 -40 49c0 27 22 50 50 50zM125 101h40c27 0 50 -22 50 -49v-79c0 -29 -23 -51 -50 -51c-28 0 -50 22 -50 51v29c-23 4 -39 24 -39 49c0 27 22 50 49 50z" />
    <glyph glyph-name="ellipsis" unicode="&#x2026;" horiz-adv-x="365" 
d="M-11 50v32c0 28 22 50 51 50c26 0 50 -22 50 -50v-32c0 -26 -24 -50 -50 -50c-29 0 -51 24 -51 50zM99 50v32c0 28 22 50 50 50c27 0 50 -22 50 -50v-32c0 -26 -23 -50 -50 -50c-28 0 -50 24 -50 50zM209 50v32c0 28 21 50 50 50c26 0 50 -22 50 -50v-32
c0 -26 -24 -50 -50 -50c-29 0 -50 24 -50 50z" />
    <glyph glyph-name="circumflex" unicode="&#x2c6;" horiz-adv-x="430" 
d="M243 662l59 -78c17 -21 11 -53 -9 -67c-21 -17 -51 -11 -66 8l-22 29c-8 -9 -13 -18 -20 -27c-18 -20 -48 -26 -69 -10c-21 15 -25 46 -9 67l59 78c11 13 25 19 39 19c15 0 30 -8 38 -19z" />
    <glyph glyph-name="perthousand" unicode="&#x2030;" horiz-adv-x="1311" 
d="M155 77l427 675l-1 -1c14 24 47 32 71 17l-2 1c24 -14 32 -47 16 -71v1c-142 -224 -284 -452 -427 -676c-15 -24 -46 -30 -69 -15s-30 46 -15 70v-1zM570 394h61c92 0 167 -75 167 -168v-58c0 -92 -75 -167 -167 -167h-61c-93 0 -167 75 -167 167v58c0 93 74 168 167 168
zM503 226v-58c0 -37 30 -67 67 -67h61c36 0 66 30 66 67v58c0 37 -30 67 -66 67h-61c-37 0 -67 -30 -67 -67zM177 777h61c92 0 167 -75 167 -167v-59c0 -92 -75 -167 -167 -167h-61c-92 0 -167 75 -167 167v59c0 92 75 167 167 167zM110 610v-59c0 -36 30 -66 67 -66h61
c37 0 67 30 67 66v59c0 36 -30 67 -67 67h-61c-37 0 -67 -31 -67 -67zM962 394h61c93 0 167 -75 167 -168v-58c0 -92 -74 -167 -167 -167h-61c-92 0 -167 75 -167 167v58c0 93 75 168 167 168zM896 226v-58c0 -37 30 -67 66 -67h61c37 0 67 30 67 67v58c0 37 -30 67 -67 67
h-61c-36 0 -66 -30 -66 -67z" />
    <glyph glyph-name="Scaron" unicode="&#x160;" horiz-adv-x="786" 
d="M172 800h477c29 0 52 -23 52 -52c0 -27 -23 -52 -52 -52h-477c-39 0 -70 -30 -70 -68v-108c0 -37 31 -68 70 -68h358c94 0 171 -77 171 -173v-107c0 -95 -77 -172 -171 -172h-479c-29 0 -51 23 -51 52c0 28 22 51 51 51h479c37 0 68 31 68 69v107c0 38 -31 69 -68 69
h-358c-95 0 -172 77 -172 172v108c0 95 77 172 172 172zM303 854l-59 79c-5 8 -8 17 -8 27c0 15 6 31 18 40c8 6 18 9 28 9c15 0 30 -6 39 -18l22 -29l21 29c9 12 23 18 37 18c10 0 20 -3 29 -9c12 -9 18 -24 18 -38c0 -10 -3 -20 -9 -29c-19 -24 -41 -54 -59 -78
c-9 -12 -23 -19 -38 -19s-29 6 -39 18z" />
    <glyph glyph-name="guilsinglleft" unicode="&#x2039;" horiz-adv-x="292" 
d="M157 293l142 -170h-164l-140 170l140 169h164z" />
    <glyph glyph-name="OE" unicode="&#x152;" horiz-adv-x="1282" 
d="M743 97h344c27 0 51 -23 51 -52c0 -27 -24 -52 -51 -52h-344c-48 0 -92 21 -124 54c-30 -26 -74 -47 -118 -47h-328c-95 0 -173 77 -173 172v459c0 95 78 172 173 172h328c49 0 94 -20 125 -53c31 29 72 47 117 47h344c27 0 51 -22 51 -52c0 -27 -24 -51 -51 -51h-344
c-38 0 -70 -31 -70 -69v-178h401c30 0 52 -22 52 -52c0 -27 -22 -51 -52 -51h-401v-177c0 -39 32 -70 70 -70zM173 104h328c38 0 70 31 70 68v459c0 37 -32 68 -70 68h-328c-38 0 -69 -31 -69 -68v-459c0 -37 31 -68 69 -68z" />
    <glyph glyph-name="quoteleft" unicode="&#x2018;" horiz-adv-x="229" 
d="M222 857l1 -1c20 -18 23 -49 5 -72l-54 -63c-18 -21 -51 -23 -72 -5s-24 50 -5 72c17 21 35 42 53 63l-1 -1c18 24 52 25 73 7z" />
    <glyph glyph-name="quoteright" unicode="&#x2019;" horiz-adv-x="167" 
d="M126 766l1 -1c20 -18 23 -49 6 -72l-54 -63c-18 -21 -51 -24 -72 -5c-21 18 -25 50 -6 72c18 21 36 42 53 63l-1 -1c18 23 52 24 73 7z" />
    <glyph glyph-name="quotedblleft" unicode="&#x201c;" horiz-adv-x="229" 
d="M208 599h-40c-26 0 -50 22 -50 49v80c0 28 24 50 50 50c28 0 50 -22 50 -50v-30c22 -4 39 -24 39 -49c0 -26 -21 -50 -49 -50zM75 598h-40c-27 0 -51 22 -51 49v80c0 28 24 50 51 50c28 0 50 -22 50 -50v-29c22 -5 39 -25 39 -50c0 -26 -22 -50 -49 -50z" />
    <glyph glyph-name="quotedblright" unicode="&#x201d;" horiz-adv-x="324" 
d="M50 778h40c26 0 50 -22 50 -49v-80c0 -28 -24 -50 -50 -50c-28 0 -50 22 -50 50v29c-22 5 -40 25 -40 50c0 26 22 50 50 50zM204 779h40c27 0 50 -22 50 -49v-80c0 -28 -23 -50 -50 -50c-28 0 -50 22 -50 50v29c-23 5 -39 25 -39 50c0 26 22 50 49 50z" />
    <glyph glyph-name="bullet" unicode="&#x2022;" horiz-adv-x="333" 
d="M291 346c0 -17 -3 -34 -10 -50l1 1c-5 -16 -15 -30 -26 -44c-11 -13 -25 -22 -42 -29c-15 -7 -33 -10 -52 -10c-21 0 -39 2 -56 11h2c-19 7 -32 17 -43 28c-12 12 -21 25 -28 43v-1c-6 15 -10 33 -10 50s3 31 9 47c5 16 14 31 27 44c12 11 25 21 42 30c16 6 35 11 56 11
c19 0 36 -3 53 -11h-1c17 -8 31 -18 43 -30c11 -11 19 -25 26 -41c6 -16 9 -33 9 -49z" />
    <glyph glyph-name="endash" unicode="&#x2013;" horiz-adv-x="479" 
d="M324 277h-192c-29 0 -50 22 -50 49c0 28 21 50 50 50h192c28 0 50 -22 50 -50c0 -27 -22 -49 -50 -49z" />
    <glyph glyph-name="emdash" unicode="&#x2014;" horiz-adv-x="604" 
d="M436 368h-283c-28 0 -50 22 -50 49c0 29 22 50 50 50h283c28 0 50 -21 50 -50c0 -27 -22 -49 -50 -49z" />
    <glyph glyph-name="tilde" unicode="&#x2dc;" horiz-adv-x="729" 
d="M-51 619c35 20 74 30 114 30c28 0 56 -5 82 -16h-1c17 -8 37 -11 57 -11c25 0 48 5 68 16c25 13 56 5 69 -20c13 -24 3 -55 -20 -69c-33 -19 -76 -29 -116 -29c-33 0 -67 7 -97 20c-13 5 -27 8 -41 8c-22 0 -45 -7 -67 -18c-25 -13 -56 -5 -69 20s-3 56 21 69z" />
    <glyph glyph-name="trademark" unicode="&#x2122;" horiz-adv-x="771" 
d="M114 584h-74v146h-56v71h185v-71h-55v-146zM214 584h-72v217h83l26 -82c9 28 17 58 24 82h81v-217h-72v19c-1 -7 -3 -13 -5 -19h-64l-1 20v-20z" />
    <glyph glyph-name="scaron" unicode="&#x161;" horiz-adv-x="719" 
d="M157 520h394c26 0 50 -23 50 -50c0 -26 -24 -48 -50 -48h-394c-40 0 -67 -28 -67 -57s27 -55 67 -55h283c96 0 170 -68 170 -154c0 -85 -74 -156 -170 -156h-398c-27 0 -49 22 -49 50s22 49 49 49h398c40 0 69 27 69 57c0 29 -29 55 -69 55h-283c-96 0 -166 69 -166 154
c0 86 70 155 166 155zM260 563l-59 79c-5 8 -8 17 -8 27c0 15 6 31 18 40c8 6 18 9 28 9c15 0 30 -6 39 -18l22 -29l21 29c9 12 23 18 37 18c10 0 20 -3 29 -9c12 -9 18 -24 18 -38c0 -10 -3 -20 -9 -29c-19 -24 -41 -54 -59 -78c-9 -12 -23 -19 -38 -19s-29 6 -39 18z" />
    <glyph glyph-name="guilsinglright" unicode="&#x203a;" horiz-adv-x="292" 
d="M225 254l-164 -123c-21 -16 -53 -11 -68 10s-11 50 9 65l115 86c-39 28 -78 57 -116 83c-18 17 -21 45 -8 66c15 19 47 23 68 9c53 -38 109 -80 163 -119c13 -11 20 -25 20 -39c0 -15 -8 -30 -19 -38z" />
    <glyph glyph-name="oe" unicode="&#x153;" horiz-adv-x="1083" 
d="M615 520h182c91 0 166 -74 166 -166v-103c0 -28 -22 -50 -50 -50h-363c0 -38 0 -41 -1 -46c7 -30 34 -54 66 -54h281c26 0 50 -22 50 -49c0 -28 -24 -50 -50 -50h-281c-44 0 -85 16 -116 45c-30 -29 -72 -47 -116 -47h-217c-92 0 -167 75 -167 167v186
c0 92 75 167 167 167h217c44 0 85 -19 115 -48c31 30 71 48 117 48zM99 353v-186c0 -37 31 -67 67 -67h217c36 0 66 30 66 67v189c-2 35 -31 64 -66 64h-217c-36 0 -67 -30 -67 -67zM550 368v-68h314v54c0 37 -30 67 -67 67h-182c-32 0 -59 -23 -65 -53z" />
    <glyph glyph-name="Ydieresis" unicode="&#x178;" horiz-adv-x="797" 
d="M682 801c29 0 51 -23 51 -52v-219c0 -95 -77 -172 -172 -172h-129v-305c0 -29 -22 -52 -51 -52s-51 23 -51 52v305h-158c-95 0 -172 77 -172 172v219c0 29 23 52 52 52c27 0 52 -23 52 -52v-219c0 -38 31 -69 68 -69h389c38 0 69 31 69 69v219c0 29 24 52 52 52zM201 736
v33c0 29 22 52 51 52c28 0 52 -23 52 -52v-33c0 -27 -24 -52 -52 -52c-29 0 -51 25 -51 52zM427 736v33c0 29 22 52 51 52c28 0 52 -23 52 -52v-33c0 -27 -24 -52 -52 -52c-29 0 -51 25 -51 52z" />
    <glyph glyph-name="exclamdown" unicode="&#xa1;" horiz-adv-x="101" 
d="M-22 49v530c0 28 22 50 51 50c26 0 50 -22 50 -50v-530c0 -28 -24 -50 -50 -50c-29 0 -51 22 -51 50zM-22 688v37c0 28 22 50 51 50c26 0 50 -22 50 -50v-37c0 -28 -24 -50 -50 -50c-29 0 -51 22 -51 50z" />
    <glyph glyph-name="cent" unicode="&#xa2;" horiz-adv-x="617" 
d="M169 104h313c28 0 50 -22 50 -50s-22 -50 -50 -50h-130v-55c0 -28 -22 -50 -50 -50c-27 0 -50 22 -50 50v55h-83c-93 0 -169 75 -169 168v180c0 94 76 168 169 168h83v60c0 28 23 50 50 50c28 0 50 -22 50 -50v-60h130c26 0 50 -21 50 -50c0 -28 -24 -50 -50 -50h-313
c-38 0 -69 -31 -69 -68v-180c0 -37 31 -68 69 -68z" />
    <glyph glyph-name="sterling" unicode="&#xa3;" horiz-adv-x="542" 
 />
    <glyph glyph-name="currency" unicode="&#xa4;" horiz-adv-x="667" 
d="M529 617l75 -75l-70 -69l4 -6c7 -10 13 -21 18 -34s10 -27 14 -43c4 -18 6 -38 6 -59c0 -20 -2 -39 -6 -57s-9 -32 -15 -44c-6 -14 -13 -25 -20 -35l1 2c-2 -3 -3 -4 -4 -6c22 -23 52 -53 71 -71l-74 -73l-71 72c-3 -3 -8 -7 -12 -9l1 1c-12 -8 -23 -14 -33 -19
c-14 -5 -28 -10 -42 -13c-14 -2 -32 -3 -53 -3s-39 2 -52 4c-14 3 -28 7 -42 13c-11 5 -21 9 -33 17c-9 6 -4 1 -13 8c-23 -22 -52 -51 -70 -70l-74 74l69 70c-2 3 -5 9 -8 15c-6 9 -11 21 -17 34v-1c-5 14 -11 28 -13 42c-3 14 -4 31 -4 51s2 39 6 57s10 32 15 44v-1
c5 14 12 26 19 35l-2 -2c1 1 3 1 4 3c4 7 -3 -1 1 4l-69 69l73 74l70 -69l1 1l8 5c10 6 21 11 36 18c12 4 26 10 42 13c17 4 35 6 54 6c20 0 38 -2 56 -7l-1 1c16 -2 30 -8 44 -14h-1c14 -6 27 -13 36 -19c2 -2 3 -3 4 -5zM477 536h-2c5 -4 9 -6 2 0zM520 492
c-2 2 -1 1 0 -2v2zM320 175c22 0 41 4 61 12c19 7 35 18 48 32c14 14 25 31 34 50c8 20 12 41 12 64s-5 47 -13 66c-9 18 -21 37 -34 49c-14 14 -31 24 -49 31c-18 8 -38 11 -58 11c-21 0 -41 -3 -60 -11c-18 -6 -35 -18 -51 -33v1c-14 -12 -26 -29 -34 -49
c-9 -20 -13 -42 -13 -66c0 -22 4 -42 12 -61c8 -20 19 -36 33 -51v1c13 -13 33 -26 50 -34c19 -7 40 -12 62 -12z" />
    <glyph glyph-name="yen" unicode="&#xa5;" horiz-adv-x="804" 
d="M320 138h-104c-28 0 -50 22 -50 49c0 18 9 34 24 43c-17 8 -27 25 -27 44c0 28 22 50 51 50h106v5h-153c-92 0 -167 74 -167 167v230c0 28 22 50 50 50c27 0 50 -22 50 -50v-230c0 -37 31 -67 67 -67h377c37 0 67 30 67 67v230c0 28 24 50 50 50c28 0 50 -22 50 -50v-230
c0 -93 -75 -167 -167 -167h-125v-5h96c28 0 50 -22 50 -50c0 -18 -10 -34 -24 -42c16 -8 27 -26 27 -45c0 -27 -22 -49 -50 -49h-99v-88c0 -28 -22 -50 -49 -50c-29 0 -50 22 -50 50v88z" />
    <glyph glyph-name="brokenbar" unicode="&#xa6;" horiz-adv-x="229" 
d="M-22 -124v267c0 29 22 51 51 51c26 0 50 -22 50 -51v-267c0 -28 -24 -50 -50 -50c-29 0 -51 22 -51 50zM-22 329v267c0 29 22 50 51 50c26 0 50 -21 50 -50v-267c0 -29 -24 -51 -50 -51c-29 0 -51 22 -51 51z" />
    <glyph glyph-name="section" unicode="&#xa7;" horiz-adv-x="500" 
 />
    <glyph glyph-name="dieresis" unicode="&#xa8;" horiz-adv-x="443" 
d="M22 566v32c0 28 22 50 50 50c27 0 50 -22 50 -50v-32c0 -26 -23 -50 -50 -50c-28 0 -50 24 -50 50zM241 566v32c0 28 22 50 50 50c27 0 51 -22 51 -50v-32c0 -26 -24 -50 -51 -50c-28 0 -50 24 -50 50z" />
    <glyph glyph-name="copyright" unicode="&#xa9;" horiz-adv-x="833" 
d="M688 437c0 -69 -22 -137 -55 -190c-57 -87 -164 -156 -293 -156c-181 0 -347 142 -347 347c0 197 154 349 348 349s347 -151 347 -350zM614 437c0 148 -114 275 -273 275c-151 0 -273 -120 -273 -275c0 -147 117 -271 273 -271c144 0 271 111 273 271zM476 380l73 -62
c-17 -21 -44 -57 -83 -79h1c-27 -15 -67 -33 -122 -33c-120 0 -232 90 -232 234c0 129 98 235 235 235c109 0 177 -82 201 -111l-73 -64c-25 29 -69 78 -127 78c-76 0 -137 -58 -137 -136c0 -85 66 -139 137 -139c61 0 107 54 127 77z" />
    <glyph glyph-name="ordfeminine" unicode="&#xaa;" horiz-adv-x="354" 
 />
    <glyph glyph-name="guillemotleft" unicode="&#xab;" horiz-adv-x="479" 
 />
    <glyph glyph-name="logicalnot" unicode="&#xac;" horiz-adv-x="667" 
 />
    <glyph glyph-name="registered" unicode="&#xae;" horiz-adv-x="833" 
d="M236 611h148c50 0 74 0 103 -11c51 -21 77 -67 77 -113c0 -51 -22 -84 -61 -104c20 -18 29 -43 35 -80c9 -58 11 -78 44 -144h-120c-15 34 -21 54 -24 74c-1 6 -4 24 -6 37c-2 12 -3 23 -4 28c-9 44 -35 49 -81 50h-6v-189h-105v452zM342 520v-79h46c19 0 70 -1 70 41
c0 11 -5 21 -12 27c-11 11 -28 11 -71 11h-33zM738 382c-1 -193 -152 -346 -350 -346c-180 0 -347 141 -347 347c0 200 161 348 348 348c201 0 350 -159 349 -349zM663 383c1 149 -116 273 -272 273c-155 0 -275 -123 -275 -273c0 -153 124 -273 273 -273
c155 0 273 121 274 273z" />
    <glyph glyph-name="macron" unicode="&#xaf;" horiz-adv-x="443" 
d="M293 533h-255c-29 0 -51 22 -51 50s22 50 51 50h255c29 0 51 -22 51 -50s-22 -50 -51 -50z" />
    <glyph glyph-name="degree" unicode="&#xb0;" horiz-adv-x="354" 
d="M169 729c21 0 44 -6 62 -13c19 -8 38 -21 50 -33c12 -13 24 -30 33 -51c8 -19 12 -39 12 -60c0 -22 -4 -42 -12 -62v1c-9 -21 -21 -38 -33 -51c-14 -14 -31 -25 -51 -34c-18 -7 -39 -11 -61 -11s-42 4 -61 12h1c-21 9 -38 20 -51 33c-14 14 -26 31 -34 50
c-7 20 -12 41 -12 62s6 43 13 62c8 18 21 37 33 49c14 14 31 26 50 34c19 7 40 12 61 12zM169 628c-15 0 -29 -6 -40 -17s-16 -24 -16 -39c0 -16 5 -30 16 -41s24 -16 40 -16s30 6 40 17c11 11 17 24 17 40c0 15 -6 29 -17 40s-24 16 -40 16z" />
    <glyph glyph-name="plusminus" unicode="&#xb1;" horiz-adv-x="500" 
d="M462 312h-172v-173h-99v173h-175v100h175v173h99v-173h172v-100zM16 100h446v-100h-446v100z" />
    <glyph glyph-name="acute" unicode="&#xb4;" horiz-adv-x="342" 
d="M246 675c12 -11 18 -24 18 -38c0 -12 -4 -24 -13 -35l-54 -63c-10 -12 -24 -18 -39 -18c-12 0 -24 4 -33 12c-11 10 -16 25 -16 39c0 12 3 23 11 33c17 21 36 42 53 62c10 13 25 20 40 20c12 0 24 -4 33 -12z" />
    <glyph glyph-name="paragraph" unicode="&#xb6;" horiz-adv-x="667" 
d="M297 690h224v-86h-30v-756h-88v756h-97v-756h-88v457c-12 3 -22 5 -34 10c-21 6 -44 23 -63 43c-15 18 -29 39 -37 65c-8 23 -11 45 -11 67c0 17 3 36 8 59c6 22 18 46 32 65c13 17 29 32 47 42c17 11 33 18 49 23c15 5 33 9 50 9c12 1 27 2 38 2z" />
    <glyph glyph-name="periodcentered" unicode="&#xb7;" horiz-adv-x="329" 
d="M110 216c-29 0 -54 10 -74 30s-30 45 -30 74s10 54 30 74s45 30 74 30s54 -10 74 -30s30 -45 30 -74s-10 -54 -30 -74s-45 -30 -74 -30z" />
    <glyph glyph-name="cedilla" unicode="&#xb8;" horiz-adv-x="229" 
d="M29 63c24 0 50 -24 50 -50v-66c0 -15 -8 -26 -16 -36c-9 -8 -20 -15 -34 -15h-2c0 -3 4 -6 9 -6c28 3 55 -25 55 -50c0 -28 -24 -50 -50 -50c-53 0 -113 35 -115 105c-1 36 22 70 52 89v29c0 26 20 50 51 50z" />
    <glyph glyph-name="onesuperior" unicode="&#xb9;" horiz-adv-x="333" 
d="M238 691v-449h-89v307c-15 -2 -37 -4 -72 -2v84c72 0 72 34 71 60h90z" />
    <glyph glyph-name="ordmasculine" unicode="&#xba;" horiz-adv-x="333" 
d="M-1 516c0 20 3 40 10 61v-1c6 20 16 40 29 59v-1c14 20 30 34 50 45c21 12 44 19 72 19c26 0 50 -6 70 -18h-1c19 -10 36 -24 50 -43l-1 1c14 -17 24 -36 31 -58c8 -21 10 -43 10 -65c0 -24 -3 -48 -10 -69c-8 -21 -20 -40 -33 -57c-14 -17 -31 -32 -51 -42
c-21 -9 -42 -15 -67 -15c-28 0 -50 7 -71 19c-20 11 -35 27 -50 45c-12 19 -22 38 -29 58c-6 22 -9 42 -9 62zM166 411v202c0 10 -1 18 -3 25v-1c1 -2 -1 -2 -4 -2h-5c-2 -6 -2 -13 -2 -22v-219h12v0c1 1 1 4 1 9c1 4 1 6 1 8zM155 637c0 -1 -1 -1 -1 -2c0 1 0 1 1 2z" />
    <glyph glyph-name="guillemotright" unicode="&#xbb;" horiz-adv-x="573" 
d="M229 254l-165 -123c-8 -6 -19 -9 -29 -9c-15 0 -30 6 -38 19c-7 9 -10 18 -10 28c0 14 7 28 18 37l115 86c-38 28 -78 57 -116 83c-10 10 -15 24 -15 38c0 10 2 19 8 28c8 11 23 17 38 17c10 0 21 -2 29 -8c53 -38 110 -80 164 -119c13 -11 20 -25 20 -39
c0 -15 -8 -30 -19 -38zM456 254l-165 -123c-8 -6 -19 -9 -29 -9c-15 0 -30 6 -38 19c-7 9 -10 18 -10 28c0 14 7 28 18 37l115 86c-3 2 -6 5 -9 7c-35 26 -71 52 -107 76c-10 10 -15 24 -15 38c0 10 2 19 8 28c8 11 23 17 38 17c10 0 21 -2 29 -8c53 -38 110 -80 164 -119
c13 -11 20 -25 20 -39c0 -15 -8 -30 -19 -38z" />
    <glyph glyph-name="onequarter" unicode="&#xbc;" horiz-adv-x="814" 
d="M682 97v-97h-87v97h-195v81l185 250h97v-256h47v-75h-47zM595 172v158h-2l-117 -158h119zM0 577v58c66 0 126 20 138 70h70v-432h-87v304h-121zM104 -24l419 748h78l-418 -748h-79z" />
    <glyph glyph-name="onehalf" unicode="&#xbd;" horiz-adv-x="891" 
d="M101 -24l419 748h78l-418 -748h-79zM0 577v58c66 0 126 20 138 70h70v-432h-87v304h-121zM752 70v-70h-315c0 100 60 147 119 184c58 37 119 60 119 125c0 43 -32 67 -73 67c-56 0 -71 -51 -73 -98h-87c0 103 59 168 164 168c86 0 156 -43 156 -135
c0 -67 -49 -107 -102 -141c-52 -33 -108 -60 -121 -100h213z" />
    <glyph glyph-name="threequarters" unicode="&#xbe;" horiz-adv-x="875" 
d="M756 97v-97h-87v97h-195v81l183 250h99v-256h47v-75h-47zM669 172v158h-2l-117 -158h119zM196 -24l419 748h78l-418 -748h-79zM146 474v58c50 -2 101 14 101 62c0 36 -38 50 -69 50c-44 0 -75 -32 -73 -76h-80c4 92 62 146 154 146c74 0 148 -31 148 -116
c0 -42 -21 -75 -64 -90v-2c51 -9 82 -50 82 -105c0 -88 -74 -137 -165 -137c-109 0 -162 58 -164 155h80c-2 -47 28 -85 84 -85c47 0 85 27 85 71c0 63 -60 71 -119 69z" />
    <glyph glyph-name="questiondown" unicode="&#xbf;" horiz-adv-x="396" 
d="M469 0h-303c-92 0 -166 74 -166 166v38c0 92 74 167 166 167h86c37 0 66 30 66 66v83c0 28 24 50 50 50c27 0 50 -22 50 -50v-83c0 -92 -74 -167 -166 -167h-86c-36 0 -66 -30 -66 -66v-38c0 -36 30 -66 66 -66h303c36 0 65 30 65 66v54c0 28 24 50 51 50
c28 0 50 -22 50 -50v-54c0 -92 -74 -166 -166 -166zM418 724v-68c0 -29 -22 -51 -50 -51c-26 0 -50 22 -50 51v68c0 27 24 50 50 50c28 0 50 -23 50 -50z" />
    <glyph glyph-name="Agrave" unicode="&#xc0;" horiz-adv-x="802" 
d="M545 801h-373c-95 0 -172 -77 -172 -172v-576c0 -29 24 -52 51 -52c28 0 52 23 52 52v304h510v-304c0 -29 25 -52 52 -52s52 23 52 52v576c0 95 -77 172 -172 172zM103 459v170c0 38 31 68 69 68h373c37 0 68 -30 68 -68v-170h-510zM287 985c9 8 21 12 33 12
c15 0 30 -6 39 -19c17 -21 36 -42 54 -63c7 -9 11 -21 11 -33c0 -15 -6 -29 -17 -39c-9 -8 -21 -12 -33 -12c-15 0 -29 6 -39 18l-55 63c-8 10 -11 22 -11 33c0 14 6 29 18 40z" />
    <glyph glyph-name="Aacute" unicode="&#xc1;" horiz-adv-x="802" 
d="M545 801h-373c-95 0 -172 -77 -172 -172v-576c0 -29 24 -52 51 -52c28 0 52 23 52 52v304h510v-304c0 -29 25 -52 52 -52s52 23 52 52v576c0 95 -77 172 -172 172zM103 459v170c0 38 31 68 69 68h373c37 0 68 -30 68 -68v-170h-510zM410 993c12 -11 18 -24 18 -38
c0 -12 -4 -24 -13 -35l-54 -63c-10 -12 -24 -18 -39 -18c-12 0 -24 4 -33 12c-11 10 -16 25 -16 39c0 12 3 23 11 33c17 21 36 42 53 62c10 13 25 20 40 20c12 0 24 -4 33 -12z" />
    <glyph glyph-name="Acircumflex" unicode="&#xc2;" horiz-adv-x="802" 
d="M172 801h373c95 0 172 -77 172 -172v-576c0 -29 -25 -52 -52 -52s-52 23 -52 52v304h-510v-304c0 -29 -24 -52 -52 -52c-27 0 -51 23 -51 52v576c0 95 77 172 172 172zM103 629v-170h510v170c0 38 -31 68 -68 68h-373c-38 0 -69 -30 -69 -68zM404 994l59 -78
c17 -21 11 -53 -9 -67c-21 -17 -51 -11 -66 8l-22 29c-8 -9 -13 -18 -20 -27c-18 -20 -48 -26 -69 -10c-21 15 -25 46 -9 67l59 78c11 13 25 19 39 19c15 0 30 -8 38 -19z" />
    <glyph glyph-name="Atilde" unicode="&#xc3;" horiz-adv-x="802" 
d="M172 801h373c95 0 172 -77 172 -172v-576c0 -29 -25 -52 -52 -52s-52 23 -52 52v304h-510v-304c0 -29 -24 -52 -52 -52c-27 0 -51 23 -51 52v576c0 95 77 172 172 172zM103 629v-170h510v170c0 38 -31 68 -68 68h-373c-38 0 -69 -30 -69 -68zM180 937c35 20 74 30 114 30
c28 0 56 -5 82 -16h-1c17 -8 37 -11 57 -11c25 0 48 5 68 16c25 13 56 5 69 -20c13 -24 3 -55 -20 -69c-33 -19 -76 -29 -116 -29c-33 0 -67 7 -97 20c-13 5 -27 8 -41 8c-22 0 -45 -7 -67 -18c-25 -13 -56 -5 -69 20s-3 56 21 69z" />
    <glyph glyph-name="Adieresis" unicode="&#xc4;" horiz-adv-x="802" 
d="M545 801h-373c-95 0 -172 -77 -172 -172v-576c0 -29 24 -52 51 -52c28 0 52 23 52 52v304h510v-304c0 -29 25 -52 52 -52s52 23 52 52v576c0 95 -77 172 -172 172zM103 459v170c0 38 31 68 69 68h373c37 0 68 -30 68 -68v-170h-510zM199 878v32c0 28 22 50 50 50
c27 0 50 -22 50 -50v-32c0 -26 -23 -50 -50 -50c-28 0 -50 24 -50 50zM418 878v32c0 28 22 50 50 50c27 0 51 -22 51 -50v-32c0 -26 -24 -50 -51 -50c-28 0 -50 24 -50 50z" />
    <glyph glyph-name="Aring" unicode="&#xc5;" horiz-adv-x="852" 
d="M172 801h373c95 0 172 -77 172 -172v-576c0 -29 -25 -52 -52 -52s-52 23 -52 52v304h-510v-304c0 -29 -24 -52 -52 -52c-27 0 -51 23 -51 52v576c0 95 77 172 172 172zM103 629v-170h510v170c0 38 -31 68 -68 68h-373c-38 0 -69 -30 -69 -68zM356 823c-30 0 -54 9 -75 29
c-20 21 -30 45 -30 75c0 14 2 27 9 41v-1c4 13 12 25 23 35c9 8 20 16 32 21h-1c14 6 27 8 42 8c13 0 26 -2 40 -8h-1c14 -5 25 -13 35 -22c9 -9 17 -21 21 -35v1c7 -14 9 -27 9 -40c0 -15 -2 -28 -9 -41v1c-4 -13 -12 -24 -21 -33c-10 -10 -21 -19 -34 -23h1
c-14 -7 -27 -8 -41 -8zM336 927c0 -5 2 -9 7 -13c3 -5 8 -6 13 -6s9 1 12 5c5 5 7 9 7 14c0 4 -2 9 -7 12c-3 5 -8 7 -12 7c-5 0 -10 -2 -14 -7c-4 -3 -6 -7 -6 -12z" />
    <glyph glyph-name="AE" unicode="&#xc6;" horiz-adv-x="1172" 
d="M672 105h351c27 0 51 -25 51 -52c0 -29 -24 -52 -51 -52h-351c-30 0 -57 7 -81 20c-10 -13 -25 -21 -41 -21c-27 0 -52 23 -52 52v289h-394v-289c0 -29 -24 -52 -52 -52c-27 0 -52 23 -52 52v576c0 95 78 172 173 172h257c46 0 88 -21 119 -51c31 34 74 52 123 52h351
c28 0 50 -23 50 -52c0 -27 -22 -51 -50 -51h-351c-38 0 -69 -32 -69 -69v-176h407c30 0 52 -25 52 -52s-22 -52 -52 -52h-407v-176c0 -37 31 -68 69 -68zM104 628v-185h394v185c0 38 -31 69 -68 69h-257c-38 0 -69 -31 -69 -69z" />
    <glyph glyph-name="Ccedilla" unicode="&#xc7;" horiz-adv-x="731" 
d="M628 104c29 0 52 -25 52 -52c0 -29 -23 -52 -52 -52h-206v-40c0 -16 -8 -27 -16 -36c-9 -9 -21 -16 -36 -16h-2c0 -3 5 -7 10 -7c29 4 56 -25 56 -51c0 -29 -24 -51 -52 -51c-54 0 -116 35 -117 109c-1 36 22 71 53 90v2h-145c-95 0 -173 77 -173 172v456
c0 95 78 172 173 172h455c29 0 52 -23 52 -52c0 -27 -23 -51 -52 -51h-455c-38 0 -69 -32 -69 -69v-456c0 -37 31 -68 69 -68h455z" />
    <glyph glyph-name="Egrave" unicode="&#xc8;" horiz-adv-x="714" 
d="M627 103h-455c-37 0 -68 32 -68 69v184h511c29 0 51 24 51 52c0 27 -22 51 -51 51h-511v169c0 37 31 68 68 68h455c28 0 51 25 51 52c0 29 -23 52 -51 52h-455c-95 0 -172 -77 -172 -172v-456c0 -95 77 -172 172 -172h455c27 0 52 23 52 52c0 27 -25 51 -52 51zM287 986
c9 8 21 12 33 12c15 0 30 -6 39 -19c17 -21 36 -42 54 -63c7 -9 11 -21 11 -33c0 -15 -6 -29 -17 -39c-9 -8 -21 -12 -33 -12c-15 0 -29 6 -39 18l-55 63c-8 10 -11 22 -11 33c0 14 6 29 18 40z" />
    <glyph glyph-name="Eacute" unicode="&#xc9;" horiz-adv-x="760" 
d="M627 103h-455c-37 0 -68 32 -68 69v184h511c29 0 51 24 51 52c0 27 -22 51 -51 51h-511v169c0 37 31 68 68 68h455c28 0 51 25 51 52c0 29 -23 52 -51 52h-455c-95 0 -172 -77 -172 -172v-456c0 -95 77 -172 172 -172h455c27 0 52 23 52 52c0 27 -25 51 -52 51zM430 990
c12 -11 18 -24 18 -38c0 -12 -4 -24 -13 -35l-54 -63c-10 -12 -24 -18 -39 -18c-12 0 -24 4 -33 12c-11 10 -16 25 -16 39c0 12 3 23 11 33c17 21 36 42 53 62c10 13 25 20 40 20c12 0 24 -4 33 -12z" />
    <glyph glyph-name="Ecircumflex" unicode="&#xca;" horiz-adv-x="760" 
d="M172 103h455c27 0 52 -24 52 -51c0 -29 -25 -52 -52 -52h-455c-95 0 -172 77 -172 172v456c0 95 77 172 172 172h455c28 0 51 -23 51 -52c0 -27 -23 -52 -51 -52h-455c-37 0 -68 -31 -68 -68v-169h511c29 0 51 -24 51 -51c0 -28 -22 -52 -51 -52h-511v-184
c0 -37 31 -69 68 -69zM401 997l59 -78c17 -21 11 -53 -9 -67c-21 -17 -51 -11 -66 8l-22 29c-8 -9 -13 -18 -20 -27c-18 -20 -48 -26 -69 -10c-21 15 -25 46 -9 67l59 78c11 13 25 19 39 19c15 0 30 -8 38 -19z" />
    <glyph glyph-name="Edieresis" unicode="&#xcb;" horiz-adv-x="760" 
d="M627 103h-455c-37 0 -68 32 -68 69v184h511c29 0 51 24 51 52c0 27 -22 51 -51 51h-511v169c0 37 31 68 68 68h455c28 0 51 25 51 52c0 29 -23 52 -51 52h-455c-95 0 -172 -77 -172 -172v-456c0 -95 77 -172 172 -172h455c27 0 52 23 52 52c0 27 -25 51 -52 51zM200 891
v32c0 28 22 50 50 50c27 0 50 -22 50 -50v-32c0 -26 -23 -50 -50 -50c-28 0 -50 24 -50 50zM419 891v32c0 28 22 50 50 50c27 0 51 -22 51 -50v-32c0 -26 -24 -50 -51 -50c-28 0 -50 24 -50 50z" />
    <glyph glyph-name="Igrave" unicode="&#xcc;" horiz-adv-x="179" 
d="M0 748v-696c0 -29 23 -52 52 -52c27 0 52 23 52 52v696c0 29 -25 52 -52 52c-29 0 -52 -23 -52 -52zM-4 990c9 8 21 12 33 12c15 0 30 -6 39 -19c17 -21 36 -42 54 -63c7 -9 11 -21 11 -33c0 -15 -6 -29 -17 -39c-9 -8 -21 -12 -33 -12c-15 0 -29 6 -39 18l-55 63
c-8 10 -11 22 -11 33c0 14 6 29 18 40z" />
    <glyph glyph-name="Iacute" unicode="&#xcd;" horiz-adv-x="179" 
d="M0 748v-696c0 -29 23 -52 52 -52c27 0 52 23 52 52v696c0 29 -25 52 -52 52c-29 0 -52 -23 -52 -52zM112 990c12 -11 18 -24 18 -38c0 -12 -4 -24 -13 -35l-54 -63c-10 -12 -24 -18 -39 -18c-12 0 -24 4 -33 12c-11 10 -16 25 -16 39c0 12 3 23 11 33c17 21 36 42 53 62
c10 13 25 20 40 20c12 0 24 -4 33 -12z" />
    <glyph glyph-name="Icircumflex" unicode="&#xce;" horiz-adv-x="179" 
d="M0 52v696c0 29 23 52 52 52c27 0 52 -23 52 -52v-696c0 -29 -25 -52 -52 -52c-29 0 -52 23 -52 52zM89 997l59 -78c17 -21 11 -53 -9 -67c-21 -17 -51 -11 -66 8l-22 29c-8 -9 -13 -18 -20 -27c-18 -20 -48 -26 -69 -10c-21 15 -25 46 -9 67l59 78c11 13 25 19 39 19
c15 0 30 -8 38 -19z" />
    <glyph glyph-name="Idieresis" unicode="&#xcf;" horiz-adv-x="179" 
d="M-79 888v32c0 28 22 50 50 50c27 0 50 -22 50 -50v-32c0 -26 -23 -50 -50 -50c-28 0 -50 24 -50 50zM73 888v32c0 28 22 50 50 50c27 0 51 -22 51 -50v-32c0 -26 -24 -50 -51 -50c-28 0 -50 24 -50 50zM0 748v-696c0 -29 23 -52 52 -52c27 0 52 23 52 52v696
c0 29 -25 52 -52 52c-29 0 -52 -23 -52 -52z" />
    <glyph glyph-name="Eth" unicode="&#xd0;" horiz-adv-x="825" 
d="M-14 337h-45c-30 0 -52 23 -52 51c0 29 22 52 52 52h45v309c0 13 5 27 16 36c8 10 22 16 36 16h516c95 0 173 -77 173 -172v-456c0 -95 -78 -172 -173 -172h-516c-30 0 -52 23 -52 52v284zM554 697h-465v-257h206c30 0 52 -23 52 -52c0 -28 -22 -51 -52 -51h-206v-233
h465c38 0 69 32 69 69v456c0 37 -31 68 -69 68z" />
    <glyph glyph-name="Ntilde" unicode="&#xd1;" horiz-adv-x="844" 
d="M657 52v576c0 38 -31 69 -69 69h-416c-39 0 -70 -31 -70 -69v-576c0 -29 -22 -52 -51 -52s-51 23 -51 52v576c0 95 77 172 172 172h416c95 0 172 -77 172 -172v-576c0 -29 -22 -52 -52 -52c-27 0 -51 23 -51 52zM194 924c35 20 74 30 114 30c28 0 56 -5 82 -16h-1
c17 -8 37 -11 57 -11c25 0 48 5 68 16c25 13 56 5 69 -20c13 -24 3 -55 -20 -69c-33 -19 -76 -29 -116 -29c-33 0 -67 7 -97 20c-13 5 -27 8 -41 8c-22 0 -45 -7 -67 -18c-25 -13 -56 -5 -69 20s-3 56 21 69z" />
    <glyph glyph-name="Ocircumflex" unicode="&#xd4;" horiz-adv-x="886" 
d="M172 800h450c95 0 172 -77 172 -172v-456c0 -95 -77 -172 -172 -172h-450c-95 0 -172 77 -172 172v456c0 95 77 172 172 172zM104 628v-456c0 -37 31 -69 68 -69h450c38 0 69 32 69 69v456c0 37 -31 68 -69 68h-450c-37 0 -68 -31 -68 -68zM416 980l59 -78
c17 -21 11 -53 -9 -67c-21 -17 -51 -11 -66 8l-22 29c-8 -9 -13 -18 -20 -27c-18 -20 -48 -26 -69 -10c-21 15 -25 46 -9 67l59 78c11 13 25 19 39 19c15 0 30 -8 38 -19z" />
    <glyph glyph-name="Otilde" unicode="&#xd5;" horiz-adv-x="886" 
d="M172 800h450c95 0 172 -77 172 -172v-456c0 -95 -77 -172 -172 -172h-450c-95 0 -172 77 -172 172v456c0 95 77 172 172 172zM104 628v-456c0 -37 31 -69 68 -69h450c38 0 69 32 69 69v456c0 37 -31 68 -69 68h-450c-37 0 -68 -31 -68 -68zM214 947c35 20 74 30 114 30
c28 0 56 -5 82 -16h-1c17 -8 37 -11 57 -11c25 0 48 5 68 16c25 13 56 5 69 -20c13 -24 3 -55 -20 -69c-33 -19 -76 -29 -116 -29c-33 0 -67 7 -97 20c-13 5 -27 8 -41 8c-22 0 -45 -7 -67 -18c-25 -13 -56 -5 -69 20s-3 56 21 69z" />
    <glyph glyph-name="Odieresis" unicode="&#xd6;" horiz-adv-x="865" 
d="M224 830v33c0 29 23 52 52 52c27 0 52 -23 52 -52v-33c0 -27 -25 -52 -52 -52c-29 0 -52 25 -52 52zM450 830v33c0 29 23 52 52 52c27 0 52 -23 52 -52v-33c0 -27 -25 -52 -52 -52c-29 0 -52 25 -52 52zM160 801h450c95 0 172 -77 172 -172v-456
c0 -95 -77 -172 -172 -172h-450c-95 0 -172 77 -172 172v456c0 95 77 172 172 172zM92 629v-456c0 -37 31 -69 68 -69h450c38 0 69 32 69 69v456c0 37 -31 68 -69 68h-450c-37 0 -68 -31 -68 -68z" />
    <glyph glyph-name="multiply" unicode="&#xd7;" horiz-adv-x="500" 
d="M445 424l-135 -135l135 -136l-71 -71l-135 135l-135 -135l-71 71l135 136l-135 135l71 71l135 -135l135 135z" />
    <glyph glyph-name="Oslash" unicode="&#xd8;" horiz-adv-x="867" 
d="M161 788h413c6 9 12 20 18 29c15 23 47 30 72 15c20 -13 28 -39 20 -61c58 -28 99 -89 99 -155v-456c0 -95 -77 -172 -172 -172h-421c-9 -15 -22 -35 -31 -49c-16 -25 -47 -31 -71 -15c-24 15 -31 48 -15 71v-1c7 13 0 1 7 14c-53 28 -91 86 -91 152v456
c0 95 77 172 172 172zM255 91h356c38 0 69 31 69 69v456c0 33 -21 59 -52 66c-131 -207 -241 -383 -373 -591zM93 616v-456c0 -29 17 -55 44 -64c133 209 239 378 372 588h-348c-37 0 -68 -31 -68 -68z" />
    <glyph glyph-name="Ugrave" unicode="&#xd9;" horiz-adv-x="818" 
d="M657 173v576c0 29 24 52 51 52c29 0 52 -23 52 -52v-576c0 -95 -77 -172 -172 -172h-417c-95 0 -172 77 -172 172v576c0 29 22 52 51 52s51 -23 51 -52v-576c0 -38 31 -69 70 -69h417c37 0 69 31 69 69zM305 905v1c22 18 57 17 76 -7l-1 1c18 -22 37 -43 55 -65
c17 -22 15 -57 -5 -74c-22 -19 -56 -16 -75 5l-56 65c-18 24 -16 55 6 74z" />
    <glyph glyph-name="Uacute" unicode="&#xda;" horiz-adv-x="822" 
d="M658 173v576c0 29 24 52 51 52c29 0 52 -23 52 -52v-576c0 -95 -77 -172 -172 -172h-417c-95 0 -172 77 -172 172v576c0 29 22 52 51 52s51 -23 51 -52v-576c0 -38 31 -69 70 -69h417c37 0 69 31 69 69zM455 906l1 -1c22 -19 24 -50 5 -74l-56 -65
c-19 -21 -52 -24 -74 -5c-21 17 -23 52 -6 74c18 22 38 43 56 65l-1 -1c19 24 54 25 75 7z" />
    <glyph glyph-name="Ucircumflex" unicode="&#xdb;" horiz-adv-x="852" 
d="M658 172v576c0 29 24 52 51 52c29 0 52 -23 52 -52v-576c0 -95 -77 -172 -172 -172h-417c-95 0 -172 77 -172 172v576c0 29 22 52 51 52s51 -23 51 -52v-576c0 -38 31 -69 70 -69h417c37 0 69 31 69 69zM417 934l59 -78c17 -21 11 -53 -9 -67c-21 -17 -51 -11 -66 8
l-22 29c-8 -9 -13 -18 -20 -27c-18 -20 -48 -26 -69 -10c-21 15 -25 46 -9 67l59 78c11 13 25 19 39 19c15 0 30 -8 38 -19z" />
    <glyph glyph-name="Udieresis" unicode="&#xdc;" horiz-adv-x="842" 
d="M657 173v576c0 29 24 52 51 52c29 0 52 -23 52 -52v-576c0 -95 -77 -172 -172 -172h-417c-95 0 -172 77 -172 172v576c0 29 22 52 51 52s51 -23 51 -52v-576c0 -38 31 -69 70 -69h417c37 0 69 31 69 69zM228 829v33c0 29 23 52 52 52c27 0 52 -23 52 -52v-33
c0 -27 -25 -52 -52 -52c-29 0 -52 25 -52 52zM454 829v33c0 29 23 52 52 52c27 0 52 -23 52 -52v-33c0 -27 -25 -52 -52 -52c-29 0 -52 25 -52 52z" />
    <glyph glyph-name="Yacute" unicode="&#xdd;" horiz-adv-x="542" 
d="M430 855l1 -1c22 -20 24 -51 5 -75l-56 -65c-18 -21 -52 -24 -74 -5c-21 18 -23 52 -6 74c18 22 38 43 56 65l-1 -1c19 25 54 26 75 8zM682 801c29 0 51 -23 51 -52v-219c0 -95 -77 -172 -172 -172h-129v-305c0 -29 -22 -52 -51 -52s-51 23 -51 52v305h-158
c-95 0 -172 77 -172 172v219c0 29 23 52 52 52c27 0 52 -23 52 -52v-219c0 -38 31 -69 68 -69h389c38 0 69 31 69 69v219c0 29 24 52 52 52z" />
    <glyph glyph-name="Thorn" unicode="&#xde;" horiz-adv-x="542" 
 />
    <glyph glyph-name="germandbls" unicode="&#xdf;" horiz-adv-x="479" 
 />
    <glyph glyph-name="aring" unicode="&#xe5;" 
d="M54 520h393c91 0 164 -73 164 -164v-192c0 -91 -73 -164 -163 -164h-284c-91 0 -164 74 -164 164c0 92 74 165 165 165h348v27c0 37 -30 66 -66 66h-393c-28 0 -50 22 -50 49s22 49 50 49zM99 164c0 -35 29 -65 65 -65h284c36 0 65 30 65 65v66h-348
c-37 0 -66 -30 -66 -66zM299 548c-30 0 -54 9 -75 29c-20 21 -30 45 -30 75c0 14 2 27 9 41v-1c4 13 12 25 23 35c9 8 20 16 32 21h-1c14 6 27 8 42 8c13 0 26 -2 40 -8h-1c14 -5 25 -13 35 -22c9 -9 17 -21 21 -35v1c7 -14 9 -27 9 -40c0 -15 -2 -28 -9 -41v1
c-4 -13 -12 -24 -21 -33c-10 -10 -21 -19 -34 -23h1c-14 -7 -27 -8 -41 -8zM279 652c0 -5 2 -9 7 -13c3 -5 8 -6 13 -6s9 1 12 5c5 5 7 9 7 14c0 4 -2 9 -7 12c-3 5 -8 7 -12 7c-5 0 -10 -2 -14 -7c-4 -3 -6 -7 -6 -12z" />
    <glyph glyph-name="ae" unicode="&#xe6;" horiz-adv-x="989" 
d="M404 230h-239c-36 0 -65 -30 -65 -66c0 -35 29 -65 64 -65h176c33 0 61 26 64 59v72zM570 519h172c92 0 167 -74 167 -167v-103c0 -28 -22 -50 -51 -50h-355v-41c0 -34 31 -59 67 -59h271c26 0 50 -21 50 -49s-24 -50 -50 -50h-271c-44 0 -87 19 -116 46
c-29 -27 -72 -46 -114 -46h-176c-91 0 -164 74 -164 164c0 92 74 165 165 165h239v32c-3 34 -31 61 -65 61h-284c-28 0 -50 22 -50 49s22 49 50 49h284c43 0 87 -20 116 -47c29 25 72 46 115 46zM503 298h306v54c0 37 -30 67 -67 67h-172c-36 0 -65 -28 -67 -63v-58z" />
    <glyph glyph-name="ccedilla" unicode="&#xe7;" horiz-adv-x="691" 
d="M554 100c27 0 49 -22 49 -51c0 -28 -22 -50 -49 -50h-181v-33c0 -15 -8 -26 -16 -35c-9 -9 -20 -16 -36 -16c0 -3 5 -6 9 -6h4c26 0 51 -26 51 -50c0 -28 -24 -50 -50 -50c-60 0 -114 44 -114 109c0 34 18 63 44 81h-97c-93 0 -168 75 -168 168v184c0 93 75 168 168 168
h387c28 0 51 -22 51 -51c0 -26 -23 -50 -51 -50h-387c-37 0 -67 -30 -67 -67v-184c0 -37 29 -67 67 -67h386z" />
    <glyph glyph-name="edieresis" unicode="&#xeb;" horiz-adv-x="698" 
d="M166 520h282c91 0 166 -74 166 -166v-105c0 -28 -22 -50 -50 -50h-466v-33c0 -36 30 -67 67 -67h382c26 0 50 -21 50 -49s-24 -50 -50 -50h-381c-92 0 -166 74 -166 166v188c0 92 74 166 166 166zM98 355v-57h417v57c0 37 -30 67 -67 67h-283c-37 0 -67 -30 -67 -67z
M146 595v32c0 28 22 50 50 50c27 0 50 -22 50 -50v-32c0 -26 -23 -50 -50 -50c-28 0 -50 24 -50 50zM365 595v32c0 28 22 50 50 50c27 0 51 -22 51 -50v-32c0 -26 -24 -50 -51 -50c-28 0 -50 24 -50 50z" />
    <glyph glyph-name="igrave" unicode="&#xec;" horiz-adv-x="240" 
d="M103 517c26 0 50 -22 50 -50v-417c0 -28 -24 -50 -50 -50c-29 0 -51 22 -51 50v417c0 28 22 50 51 50zM18 697c9 8 21 12 33 12c15 0 30 -6 39 -19c17 -21 36 -42 54 -63c7 -9 11 -21 11 -33c0 -15 -6 -29 -17 -39c-9 -8 -21 -12 -33 -12c-15 0 -29 6 -39 18l-55 63
c-8 10 -11 22 -11 33c0 14 6 29 18 40z" />
    <glyph glyph-name="iacute" unicode="&#xed;" horiz-adv-x="242" 
d="M138 690c12 -11 18 -24 18 -38c0 -12 -4 -24 -13 -35l-54 -63c-10 -12 -24 -18 -39 -18c-12 0 -24 4 -33 12c-11 10 -16 25 -16 39c0 12 3 23 11 33c17 21 36 42 53 62c10 13 25 20 40 20c12 0 24 -4 33 -12zM77 517c26 0 50 -22 50 -50v-417c0 -28 -24 -50 -50 -50
c-29 0 -51 22 -51 50v417c0 28 22 50 51 50z" />
    <glyph glyph-name="icircumflex" unicode="&#xee;" horiz-adv-x="300" 
d="M108 517c26 0 50 -22 50 -50v-417c0 -28 -24 -50 -50 -50c-29 0 -51 22 -51 50v417c0 28 22 50 51 50zM146 682l59 -78c17 -21 11 -53 -9 -67c-21 -17 -51 -11 -66 8l-22 29c-8 -9 -13 -18 -20 -27c-18 -20 -48 -26 -69 -10c-21 15 -25 46 -9 67l59 78c11 13 25 19 39 19
c15 0 30 -8 38 -19z" />
    <glyph glyph-name="idieresis" unicode="&#xef;" horiz-adv-x="332" 
d="M0 597v32c0 28 22 50 50 50c27 0 50 -22 50 -50v-32c0 -26 -23 -50 -50 -50c-28 0 -50 24 -50 50zM146 597v32c0 28 22 50 50 50c27 0 51 -22 51 -50v-32c0 -26 -24 -50 -51 -50c-28 0 -50 24 -50 50zM119 517c26 0 50 -22 50 -50v-417c0 -28 -24 -50 -50 -50
c-29 0 -51 22 -51 50v417c0 28 22 50 51 50z" />
    <glyph glyph-name="eth" unicode="&#xf0;" horiz-adv-x="458" 
 />
    <glyph glyph-name="ntilde" unicode="&#xf1;" horiz-adv-x="680" 
d="M49 520h355c93 0 167 -75 167 -167v-303c0 -28 -22 -50 -50 -50c-27 0 -49 22 -49 50v303c0 37 -30 67 -68 67h-304v-370c0 -28 -24 -50 -50 -50c-28 0 -50 22 -50 50v420c0 28 21 49 49 50zM73 659c35 20 74 30 114 30c28 0 56 -5 82 -16h-1c17 -8 37 -11 57 -11
c25 0 48 5 68 16c25 13 56 5 69 -20c13 -24 3 -55 -20 -69c-33 -19 -76 -29 -116 -29c-33 0 -67 7 -97 20c-13 5 -27 8 -41 8c-22 0 -45 -7 -67 -18c-25 -13 -56 -5 -69 20s-3 56 21 69z" />
    <glyph glyph-name="ograve" unicode="&#xf2;" horiz-adv-x="774" 
d="M167 520h345c93 0 168 -75 168 -167v-185c0 -92 -75 -167 -168 -167h-345c-92 0 -167 75 -167 167v185c0 92 75 167 167 167zM101 355v-187c0 -37 30 -67 66 -67h345c37 0 67 30 67 67v187c0 37 -30 67 -67 67h-345c-36 0 -66 -30 -66 -67zM263 701c9 8 21 12 33 12
c15 0 30 -6 39 -19c17 -21 36 -42 54 -63c7 -9 11 -21 11 -33c0 -15 -6 -29 -17 -39c-9 -8 -21 -12 -33 -12c-15 0 -29 6 -39 18l-55 63c-8 10 -11 22 -11 33c0 14 6 29 18 40z" />
    <glyph glyph-name="oacute" unicode="&#xf3;" horiz-adv-x="765" 
d="M167 520h345c93 0 168 -75 168 -167v-185c0 -92 -75 -167 -168 -167h-345c-92 0 -167 75 -167 167v185c0 92 75 167 167 167zM101 355v-187c0 -37 30 -67 66 -67h345c37 0 67 30 67 67v187c0 37 -30 67 -67 67h-345c-36 0 -66 -30 -66 -67zM387 697c12 -11 18 -24 18 -38
c0 -12 -4 -24 -13 -35l-54 -63c-10 -12 -24 -18 -39 -18c-12 0 -24 4 -33 12c-11 10 -16 25 -16 39c0 12 3 23 11 33c17 21 36 42 53 62c10 13 25 20 40 20c12 0 24 -4 33 -12z" />
    <glyph glyph-name="ocircumflex" unicode="&#xf4;" horiz-adv-x="774" 
d="M167 520h345c93 0 168 -75 168 -167v-185c0 -92 -75 -167 -168 -167h-345c-92 0 -167 75 -167 167v185c0 92 75 167 167 167zM101 355v-187c0 -37 30 -67 66 -67h345c37 0 67 30 67 67v187c0 37 -30 67 -67 67h-345c-36 0 -66 -30 -66 -67zM377 714l59 -78
c17 -21 11 -53 -9 -67c-21 -17 -51 -11 -66 8l-22 29c-8 -9 -13 -18 -20 -27c-18 -20 -48 -26 -69 -10c-21 15 -25 46 -9 67l59 78c11 13 25 19 39 19c15 0 30 -8 38 -19z" />
    <glyph glyph-name="otilde" unicode="&#xf5;" horiz-adv-x="766" 
d="M167 520h345c93 0 168 -75 168 -167v-185c0 -92 -75 -167 -168 -167h-345c-92 0 -167 75 -167 167v185c0 92 75 167 167 167zM101 355v-187c0 -37 30 -67 66 -67h345c37 0 67 30 67 67v187c0 37 -30 67 -67 67h-345c-36 0 -66 -30 -66 -67zM143 654c35 20 74 30 114 30
c28 0 56 -5 82 -16h-1c17 -8 37 -11 57 -11c25 0 48 5 68 16c25 13 56 5 69 -20c13 -24 3 -55 -20 -69c-33 -19 -76 -29 -116 -29c-33 0 -67 7 -97 20c-13 5 -27 8 -41 8c-22 0 -45 -7 -67 -18c-25 -13 -56 -5 -69 20s-3 56 21 69z" />
    <glyph glyph-name="odieresis" unicode="&#xf6;" horiz-adv-x="774" 
d="M167 520h345c93 0 168 -75 168 -167v-185c0 -92 -75 -167 -168 -167h-345c-92 0 -167 75 -167 167v185c0 92 75 167 167 167zM101 355v-187c0 -37 30 -67 66 -67h345c37 0 67 30 67 67v187c0 37 -30 67 -67 67h-345c-36 0 -66 -30 -66 -67zM175 603v32c0 28 22 50 50 50
c27 0 50 -22 50 -50v-32c0 -26 -23 -50 -50 -50c-28 0 -50 24 -50 50zM394 603v32c0 28 22 50 50 50c27 0 51 -22 51 -50v-32c0 -26 -24 -50 -51 -50c-28 0 -50 24 -50 50z" />
    <glyph glyph-name="divide" unicode="&#xf7;" horiz-adv-x="514" 
d="M380 242h-329c-27 0 -51 22 -51 50s24 50 51 50h329c28 0 49 -22 49 -50s-21 -50 -49 -50zM167 429v68c0 29 21 51 50 51c26 0 50 -22 50 -51v-68c0 -26 -24 -50 -50 -50c-29 0 -50 24 -50 50zM167 93v69c0 28 21 50 50 50c26 0 50 -22 50 -50v-69c0 -26 -24 -50 -50 -50
c-29 0 -50 24 -50 50z" />
    <glyph glyph-name="oslash" unicode="&#xf8;" horiz-adv-x="765" 
d="M610 489l6 5c11 12 29 20 45 20c8 0 16 -2 22 -6c15 -9 24 -25 24 -43c0 -10 -3 -21 -9 -30l-30 -22c8 -19 11 -40 11 -60v-186c0 -92 -75 -167 -167 -167h-345c-15 0 -32 2 -47 6l-11 -10c-10 -12 -24 -19 -38 -19c-10 0 -20 3 -29 9c-14 10 -22 26 -22 43
c0 9 2 19 7 27l9 7c-23 28 -36 65 -36 104v186c0 93 75 167 167 167h345c35 0 71 -12 98 -31zM100 353v-186c0 -16 7 -32 16 -44c141 105 257 190 401 297h-350c-36 0 -67 -30 -67 -67zM246 100h266c37 0 67 31 67 67v179c-122 -89 -205 -151 -333 -246z" />
    <glyph glyph-name="ugrave" unicode="&#xf9;" horiz-adv-x="703" 
d="M540 0h-373c-92 0 -167 75 -167 167v303c0 27 22 50 50 50c27 0 51 -23 51 -50v-303c0 -37 30 -67 66 -67h323v369c0 27 22 50 50 50s50 -23 50 -50v-419c0 -26 -22 -50 -50 -50zM209 635c9 8 21 12 33 12c15 0 30 -6 39 -19c17 -21 36 -42 54 -63c7 -9 11 -21 11 -33
c0 -15 -6 -29 -17 -39c-9 -8 -21 -12 -33 -12c-15 0 -29 6 -39 18l-55 63c-8 10 -11 22 -11 33c0 14 6 29 18 40z" />
    <glyph glyph-name="uacute" unicode="&#xfa;" horiz-adv-x="703" 
d="M540 0h-373c-92 0 -167 75 -167 167v303c0 27 22 50 50 50c27 0 51 -23 51 -50v-303c0 -37 30 -67 66 -67h323v369c0 27 22 50 50 50s50 -23 50 -50v-419c0 -26 -22 -50 -50 -50zM362 635c12 -11 18 -24 18 -38c0 -12 -4 -24 -13 -35l-54 -63c-10 -12 -24 -18 -39 -18
c-12 0 -24 4 -33 12c-11 10 -16 25 -16 39c0 12 3 23 11 33c17 21 36 42 53 62c10 13 25 20 40 20c12 0 24 -4 33 -12z" />
    <glyph glyph-name="ucircumflex" unicode="&#xfb;" horiz-adv-x="693" 
d="M540 0h-373c-92 0 -167 75 -167 167v303c0 27 22 50 50 50c27 0 51 -23 51 -50v-303c0 -37 30 -67 66 -67h323v369c0 27 22 50 50 50s50 -23 50 -50v-419c0 -26 -22 -50 -50 -50zM334 662l59 -78c17 -21 11 -53 -9 -67c-21 -17 -51 -11 -66 8l-22 29
c-8 -9 -13 -18 -20 -27c-18 -20 -48 -26 -69 -10c-21 15 -25 46 -9 67l59 78c11 13 25 19 39 19c15 0 30 -8 38 -19z" />
    <glyph glyph-name="udieresis" unicode="&#xfc;" horiz-adv-x="703" 
d="M540 0h-373c-92 0 -167 75 -167 167v303c0 27 22 50 50 50c27 0 51 -23 51 -50v-303c0 -37 30 -67 66 -67h323v369c0 27 22 50 50 50s50 -23 50 -50v-419c0 -26 -22 -50 -50 -50zM132 558v32c0 28 22 50 50 50c27 0 50 -22 50 -50v-32c0 -26 -23 -50 -50 -50
c-28 0 -50 24 -50 50zM351 558v32c0 28 22 50 50 50c27 0 51 -22 51 -50v-32c0 -26 -24 -50 -51 -50c-28 0 -50 24 -50 50z" />
    <glyph glyph-name="yacute" unicode="&#xfd;" horiz-adv-x="698" 
d="M606 471v-558c0 -93 -75 -167 -167 -167h-345c-29 0 -51 22 -51 49c0 29 22 51 51 51h345c36 0 66 30 66 67v101c-19 -8 -44 -14 -66 -14h-272c-93 0 -167 75 -167 167v304c0 28 21 50 50 50c26 0 50 -22 50 -50v-304c0 -36 30 -67 67 -67h272c36 0 66 31 66 67v304
c0 28 22 50 51 50c26 0 50 -22 50 -50zM369 675c12 -11 18 -24 18 -38c0 -12 -4 -24 -13 -35l-54 -63c-10 -12 -24 -18 -39 -18c-12 0 -24 4 -33 12c-11 10 -16 25 -16 39c0 12 3 23 11 33c17 21 36 42 53 62c10 13 25 20 40 20c12 0 24 -4 33 -12z" />
    <glyph glyph-name="thorn" unicode="&#xfe;" horiz-adv-x="600" 
d="M166 520h180c92 0 167 -74 167 -167v-186c0 -92 -75 -167 -167 -167h-180c-24 0 -45 5 -66 14v-197c0 -28 -24 -50 -50 -50c-29 0 -51 22 -51 50v868c0 28 22 50 51 50c26 0 50 -22 50 -50v-178c18 7 45 13 66 13zM166 420c-35 0 -64 -28 -66 -64v-193
c2 -35 31 -63 66 -63h180c37 0 67 31 67 67v186c0 37 -30 67 -67 67h-180z" />
    <glyph glyph-name="ydieresis" unicode="&#xff;" horiz-adv-x="698" 
d="M606 471v-558c0 -93 -75 -167 -167 -167h-345c-29 0 -51 22 -51 49c0 29 22 51 51 51h345c36 0 66 30 66 67v101c-19 -8 -44 -14 -66 -14h-272c-93 0 -167 75 -167 167v304c0 28 21 50 50 50c26 0 50 -22 50 -50v-304c0 -36 30 -67 67 -67h272c36 0 66 31 66 67v304
c0 28 22 50 51 50c26 0 50 -22 50 -50zM142 566v32c0 28 22 50 50 50c27 0 50 -22 50 -50v-32c0 -26 -23 -50 -50 -50c-28 0 -50 24 -50 50zM361 566v32c0 28 22 50 50 50c27 0 51 -22 51 -50v-32c0 -26 -24 -50 -51 -50c-28 0 -50 24 -50 50z" />
    <glyph glyph-name="numbersign" unicode="#" horiz-adv-x="577" 
d="M400 317h42c27 0 50 -24 50 -51c0 -28 -23 -50 -50 -50h-42v-42c0 -28 -24 -50 -50 -50c-28 0 -50 22 -50 50v42h-107v-42c0 -28 -24 -50 -50 -50c-29 0 -51 22 -51 50v42h-42c-28 0 -50 22 -50 50c0 27 22 51 50 51h42v106h-42c-28 0 -50 22 -50 51c0 26 22 50 50 50h42
v42c0 26 22 50 51 50c26 0 50 -24 50 -50v-42h107v42c0 26 22 50 50 50c26 0 50 -24 50 -50v-42h42c27 0 50 -24 50 -50c0 -29 -23 -51 -50 -51h-42v-106zM193 423v-106h107v106h-107z" />
    <glyph glyph-name="Zcaron" unicode="&#x17d;" horiz-adv-x="754" 
d="M52 800h597c20 0 39 -13 47 -31c5 -18 3 -35 -9 -53c-487 -571 -523 -612 -523 -612h505c29 0 52 -25 52 -52c0 -29 -23 -52 -52 -52h-617c-27 0 -52 23 -52 52c0 12 4 25 12 33c489 570 524 612 524 612h-484c-28 0 -52 22 -52 51c0 28 24 52 52 52zM304 857l-59 79
c-5 8 -8 17 -8 27c0 15 6 31 18 40c8 6 18 9 28 9c15 0 30 -6 39 -18l22 -29l21 29c9 12 23 18 37 18c10 0 20 -3 29 -9c12 -9 18 -24 18 -38c0 -10 -3 -20 -9 -29c-19 -24 -41 -54 -59 -78c-9 -12 -23 -19 -38 -19s-29 6 -39 18z" />
    <glyph glyph-name="zcaron" unicode="&#x17e;" horiz-adv-x="687" 
d="M549 520c26 0 46 -27 46 -55c0 -16 -7 -32 -22 -43c0 0 -302 -250 -392 -325h369c27 0 48 -23 48 -49c0 -29 -21 -48 -48 -48h-511c-24 0 -47 23 -47 47c0 18 6 31 19 41c0 0 310 259 401 334h-368c-29 0 -52 18 -52 49c0 27 22 49 51 49h506zM257 572l-59 79
c-5 8 -8 17 -8 27c0 15 6 31 18 40c8 6 18 9 28 9c15 0 30 -6 39 -18l22 -29l21 29c9 12 23 18 37 18c10 0 20 -3 29 -9c12 -9 18 -24 18 -38c0 -10 -3 -20 -9 -29c-19 -24 -41 -54 -59 -78c-9 -12 -23 -19 -38 -19s-29 6 -39 18z" />
    <glyph glyph-name="mu" unicode="&#xb5;" horiz-adv-x="500" 
 />
    <glyph glyph-name="Euro" unicode="&#x20ac;" horiz-adv-x="727" 
d="M562 116h-1c26 12 54 -5 63 -28c10 -24 -7 -52 -30 -64c-42 -15 -86 -24 -131 -24c-175 0 -323 115 -370 273h-70c-29 0 -52 23 -52 52c0 22 23 46 52 46h53v17v11h-53c-29 0 -52 22 -52 49c0 33 23 52 52 52h70c48 159 195 275 370 275c45 0 91 -10 137 -25
c20 -14 35 -42 24 -68v5c-7 -27 -34 -39 -60 -32c-34 10 -66 18 -101 18c-115 0 -217 -75 -265 -173h302c24 0 49 -19 49 -52c0 -27 -25 -49 -49 -49h-327v-11c0 -14 -2 -4 0 -17h327c24 0 49 -24 49 -46c0 -29 -25 -52 -49 -52h-302c45 -108 145 -175 265 -175
c35 0 66 5 99 18z" />
    <glyph glyph-name="umacron" unicode="&#x16b;" horiz-adv-x="683" 
d="M540 0h-373c-92 0 -167 75 -167 167v303c0 27 22 50 50 50c27 0 51 -23 51 -50v-303c0 -37 30 -67 66 -67h323v369c0 27 22 50 50 50s50 -23 50 -50v-419c0 -26 -22 -50 -50 -50zM424 492h-255c-29 0 -51 22 -51 50s22 50 51 50h255c29 0 51 -22 51 -50s-22 -50 -51 -50z
" />
    <glyph glyph-name="exclam" unicode="!" horiz-adv-x="181" 
d="M0 216v511c0 28 22 50 51 50c26 0 50 -22 50 -50v-511c0 -28 -24 -50 -50 -50c-29 0 -51 22 -51 50zM0 51v37c0 28 22 50 51 50c26 0 50 -22 50 -50v-37c0 -28 -24 -50 -50 -50c-29 0 -51 22 -51 50z" />
    <glyph glyph-name="quotedbl" unicode="&#x22;" horiz-adv-x="311" 
d="M50 799c27 0 51 -22 51 -49v-143c0 -29 -24 -51 -51 -51c-28 0 -50 22 -50 51v143c0 27 22 49 50 49zM176 799c26 0 50 -22 50 -49v-143c0 -29 -24 -51 -50 -51c-28 0 -50 22 -50 51v143c0 27 22 49 50 49z" />
    <glyph glyph-name="egrave" unicode="&#xe8;" horiz-adv-x="698" 
d="M166 520h282c91 0 166 -74 166 -166v-105c0 -28 -22 -50 -50 -50h-466v-33c0 -36 30 -67 67 -67h382c26 0 50 -21 50 -49s-24 -50 -50 -50h-381c-92 0 -166 74 -166 166v188c0 92 74 166 166 166zM98 355v-57h417v57c0 37 -30 67 -67 67h-283c-37 0 -67 -30 -67 -67z
M237 696c9 8 21 12 33 12c15 0 30 -6 39 -19c17 -21 36 -42 54 -63c7 -9 11 -21 11 -33c0 -15 -6 -29 -17 -39c-9 -8 -21 -12 -33 -12c-15 0 -29 6 -39 18l-55 63c-8 10 -11 22 -11 33c0 14 6 29 18 40z" />
    <glyph glyph-name="eacute" unicode="&#xe9;" horiz-adv-x="698" 
d="M166 520h282c91 0 166 -74 166 -166v-105c0 -28 -22 -50 -50 -50h-466v-33c0 -36 30 -67 67 -67h382c26 0 50 -21 50 -49s-24 -50 -50 -50h-381c-92 0 -166 74 -166 166v188c0 92 74 166 166 166zM98 355v-57h417v57c0 37 -30 67 -67 67h-283c-37 0 -67 -30 -67 -67z
M371 695c12 -11 18 -24 18 -38c0 -12 -4 -24 -13 -35l-54 -63c-10 -12 -24 -18 -39 -18c-12 0 -24 4 -33 12c-11 10 -16 25 -16 39c0 12 3 23 11 33c17 21 36 42 53 62c10 13 25 20 40 20c12 0 24 -4 33 -12z" />
    <glyph glyph-name="ecircumflex" unicode="&#xea;" horiz-adv-x="698" 
d="M166 520h282c91 0 166 -74 166 -166v-105c0 -28 -22 -50 -50 -50h-466v-33c0 -36 30 -67 67 -67h382c26 0 50 -21 50 -49s-24 -50 -50 -50h-381c-92 0 -166 74 -166 166v188c0 92 74 166 166 166zM98 355v-57h417v57c0 37 -30 67 -67 67h-283c-37 0 -67 -30 -67 -67z
M341 703l59 -78c17 -21 11 -53 -9 -67c-21 -17 -51 -11 -66 8l-22 29c-8 -9 -13 -18 -20 -27c-18 -20 -48 -26 -69 -10c-21 15 -25 46 -9 67l59 78c11 13 25 19 39 19c15 0 30 -8 38 -19z" />
    <glyph glyph-name="Ograve" unicode="&#xd2;" horiz-adv-x="886" 
d="M172 800h450c95 0 172 -77 172 -172v-456c0 -95 -77 -172 -172 -172h-450c-95 0 -172 77 -172 172v456c0 95 77 172 172 172zM104 628v-456c0 -37 31 -69 68 -69h450c38 0 69 32 69 69v456c0 37 -31 68 -69 68h-450c-37 0 -68 -31 -68 -68zM345 979c9 8 21 12 33 12
c15 0 30 -6 39 -19c17 -21 36 -42 54 -63c7 -9 11 -21 11 -33c0 -15 -6 -29 -17 -39c-9 -8 -21 -12 -33 -12c-15 0 -29 6 -39 18l-55 63c-8 10 -11 22 -11 33c0 14 6 29 18 40z" />
    <glyph glyph-name="Oacute" unicode="&#xd3;" horiz-adv-x="886" 
d="M172 800h450c95 0 172 -77 172 -172v-456c0 -95 -77 -172 -172 -172h-450c-95 0 -172 77 -172 172v456c0 95 77 172 172 172zM104 628v-456c0 -37 31 -69 68 -69h450c38 0 69 32 69 69v456c0 37 -31 68 -69 68h-450c-37 0 -68 -31 -68 -68zM459 982c12 -11 18 -24 18 -38
c0 -12 -4 -24 -13 -35l-54 -63c-10 -12 -24 -18 -39 -18c-12 0 -24 4 -33 12c-11 10 -16 25 -16 39c0 12 3 23 11 33c17 21 36 42 53 62c10 13 25 20 40 20c12 0 24 -4 33 -12z" />
    <glyph glyph-name="agrave" unicode="&#xe0;" 
d="M54 520h393c91 0 164 -73 164 -164v-192c0 -91 -73 -164 -163 -164h-284c-91 0 -164 74 -164 164c0 92 74 165 165 165h348v27c0 37 -30 66 -66 66h-393c-28 0 -50 22 -50 49s22 49 50 49zM99 164c0 -35 29 -65 65 -65h284c36 0 65 30 65 65v66h-348
c-37 0 -66 -30 -66 -66zM249 710c9 8 21 12 33 12c15 0 30 -6 39 -19c17 -21 36 -42 54 -63c7 -9 11 -21 11 -33c0 -15 -6 -29 -17 -39c-9 -8 -21 -12 -33 -12c-15 0 -29 6 -39 18l-55 63c-8 10 -11 22 -11 33c0 14 6 29 18 40z" />
    <glyph glyph-name="aacute" unicode="&#xe1;" 
d="M54 520h393c91 0 164 -73 164 -164v-192c0 -91 -73 -164 -163 -164h-284c-91 0 -164 74 -164 164c0 92 74 165 165 165h348v27c0 37 -30 66 -66 66h-393c-28 0 -50 22 -50 49s22 49 50 49zM99 164c0 -35 29 -65 65 -65h284c36 0 65 30 65 65v66h-348
c-37 0 -66 -30 -66 -66zM354 715c12 -11 18 -24 18 -38c0 -12 -4 -24 -13 -35l-54 -63c-10 -12 -24 -18 -39 -18c-12 0 -24 4 -33 12c-11 10 -16 25 -16 39c0 12 3 23 11 33c17 21 36 42 53 62c10 13 25 20 40 20c12 0 24 -4 33 -12z" />
    <glyph glyph-name="acircumflex" unicode="&#xe2;" 
d="M54 520h393c91 0 164 -73 164 -164v-192c0 -91 -73 -164 -163 -164h-284c-91 0 -164 74 -164 164c0 92 74 165 165 165h348v27c0 37 -30 66 -66 66h-393c-28 0 -50 22 -50 49s22 49 50 49zM99 164c0 -35 29 -65 65 -65h284c36 0 65 30 65 65v66h-348
c-37 0 -66 -30 -66 -66zM325 724l59 -78c17 -21 11 -53 -9 -67c-21 -17 -51 -11 -66 8l-22 29c-8 -9 -13 -18 -20 -27c-18 -20 -48 -26 -69 -10c-21 15 -25 46 -9 67l59 78c11 13 25 19 39 19c15 0 30 -8 38 -19z" />
    <glyph glyph-name="adieresis" unicode="&#xe4;" 
d="M54 520h393c91 0 164 -73 164 -164v-192c0 -91 -73 -164 -163 -164h-284c-91 0 -164 74 -164 164c0 92 74 165 165 165h348v27c0 37 -30 66 -66 66h-393c-28 0 -50 22 -50 49s22 49 50 49zM99 164c0 -35 29 -65 65 -65h284c36 0 65 30 65 65v66h-348
c-37 0 -66 -30 -66 -66zM133 624v32c0 28 22 50 50 50c27 0 50 -22 50 -50v-32c0 -26 -23 -50 -50 -50c-28 0 -50 24 -50 50zM352 624v32c0 28 22 50 50 50c27 0 51 -22 51 -50v-32c0 -26 -24 -50 -51 -50c-28 0 -50 24 -50 50z" />
    <glyph glyph-name="atilde" unicode="&#xe3;" 
d="M54 520h393c91 0 164 -73 164 -164v-192c0 -91 -73 -164 -163 -164h-284c-91 0 -164 74 -164 164c0 92 74 165 165 165h348v27c0 37 -30 66 -66 66h-393c-28 0 -50 22 -50 49s22 49 50 49zM99 164c0 -35 29 -65 65 -65h284c36 0 65 30 65 65v66h-348
c-37 0 -66 -30 -66 -66zM116 674c35 20 74 30 114 30c28 0 56 -5 82 -16h-1c17 -8 37 -11 57 -11c25 0 48 5 68 16c25 13 56 5 69 -20c13 -24 3 -55 -20 -69c-33 -19 -76 -29 -116 -29c-33 0 -67 7 -97 20c-13 5 -27 8 -41 8c-22 0 -45 -7 -67 -18c-25 -13 -56 -5 -69 20
s-3 56 21 69z" />
    <glyph glyph-name="afii10034" unicode="&#x420;" horiz-adv-x="825" 
d="M173 800h395c95 0 172 -77 172 -172v-257c0 -95 -77 -172 -172 -172h-464v-147c0 -29 -25 -52 -52 -52c-29 0 -52 23 -52 52v576c0 95 77 172 173 172zM104 628v-326h464c38 0 70 31 70 69v257c0 37 -32 68 -70 68h-395c-38 0 -69 -31 -69 -68z" />
    <glyph glyph-name="afii10035" unicode="&#x421;" horiz-adv-x="764" 
d="M172 801h455c30 0 52 -23 52 -52c0 -27 -22 -52 -52 -52h-455c-38 0 -69 -31 -69 -68v-456c0 -37 31 -69 69 -69h455c30 0 52 -24 52 -51c0 -29 -22 -52 -52 -52h-455c-95 0 -172 77 -172 172v456c0 95 77 172 172 172z" />
    <glyph glyph-name="space" unicode=" " horiz-adv-x="341" 
 />
    <glyph glyph-name="uni04D7" unicode="&#x4d7;" horiz-adv-x="833" 
 />
    <glyph glyph-name="_58" unicode="&#x43a;" horiz-adv-x="652" 
d="M560 470v-72c0 -47 -19 -89 -48 -119c29 -30 48 -71 48 -117v-112c0 -26 -24 -50 -50 -50c-27 0 -50 24 -50 50v112c0 38 -31 67 -68 67h-291v-179c0 -26 -22 -50 -50 -50c-27 0 -51 24 -51 50v676c0 26 24 50 51 50c28 0 50 -24 50 -50v-396h291c37 0 68 31 68 68v72
c0 28 23 50 50 50c26 0 50 -22 50 -50z" />
  </font>
</defs>
</svg>
